<svg width="1084" height="788" viewBox="0 0 1084 788" fill="none" xmlns="http://www.w3.org/2000/svg">
<path d="M116.75 8.5C119.097 8.5 121 6.59721 121 4.25C121 1.90279 119.097 0 116.75 0C114.403 0 112.5 1.90279 112.5 4.25C112.5 6.59721 114.403 8.5 116.75 8.5Z" fill="#DEDDDD"/>
<path d="M141.75 8.5C144.097 8.5 146 6.59721 146 4.25C146 1.90279 144.097 0 141.75 0C139.403 0 137.5 1.90279 137.5 4.25C137.5 6.59721 139.403 8.5 141.75 8.5Z" fill="#DEDDDD"/>
<path d="M166.75 8.5C169.097 8.5 171 6.59721 171 4.25C171 1.90279 169.097 0 166.75 0C164.403 0 162.5 1.90279 162.5 4.25C162.5 6.59721 164.403 8.5 166.75 8.5Z" fill="#DEDDDD"/>
<path d="M191.75 8.5C194.097 8.5 196 6.59721 196 4.25C196 1.90279 194.097 0 191.75 0C189.403 0 187.5 1.90279 187.5 4.25C187.5 6.59721 189.403 8.5 191.75 8.5Z" fill="#DEDDDD"/>
<path d="M104.25 30.1506C106.597 30.1506 108.5 28.2478 108.5 25.9006C108.5 23.5534 106.597 21.6506 104.25 21.6506C101.903 21.6506 100 23.5534 100 25.9006C100 28.2478 101.903 30.1506 104.25 30.1506Z" fill="#DEDDDD"/>
<path d="M129.25 30.1506C131.597 30.1506 133.5 28.2478 133.5 25.9006C133.5 23.5534 131.597 21.6506 129.25 21.6506C126.903 21.6506 125 23.5534 125 25.9006C125 28.2478 126.903 30.1506 129.25 30.1506Z" fill="#DEDDDD"/>
<path d="M154.25 30.1506C156.597 30.1506 158.5 28.2478 158.5 25.9006C158.5 23.5534 156.597 21.6506 154.25 21.6506C151.903 21.6506 150 23.5534 150 25.9006C150 28.2478 151.903 30.1506 154.25 30.1506Z" fill="#DEDDDD"/>
<path d="M179.25 30.1506C181.597 30.1506 183.5 28.2478 183.5 25.9006C183.5 23.5534 181.597 21.6506 179.25 21.6506C176.903 21.6506 175 23.5534 175 25.9006C175 28.2478 176.903 30.1506 179.25 30.1506Z" fill="#DEDDDD"/>
<path d="M204.25 30.1506C206.597 30.1506 208.5 28.2478 208.5 25.9006C208.5 23.5534 206.597 21.6506 204.25 21.6506C201.903 21.6506 200 23.5534 200 25.9006C200 28.2478 201.903 30.1506 204.25 30.1506Z" fill="#DEDDDD"/>
<path d="M229.25 30.1506C231.597 30.1506 233.5 28.2478 233.5 25.9006C233.5 23.5534 231.597 21.6506 229.25 21.6506C226.903 21.6506 225 23.5534 225 25.9006C225 28.2478 226.903 30.1506 229.25 30.1506Z" fill="#DEDDDD"/>
<path d="M254.25 30.1506C256.597 30.1506 258.5 28.2478 258.5 25.9006C258.5 23.5534 256.597 21.6506 254.25 21.6506C251.903 21.6506 250 23.5534 250 25.9006C250 28.2478 251.903 30.1506 254.25 30.1506Z" fill="#DEDDDD"/>
<path d="M279.25 30.1506C281.597 30.1506 283.5 28.2478 283.5 25.9006C283.5 23.5534 281.597 21.6506 279.25 21.6506C276.903 21.6506 275 23.5534 275 25.9006C275 28.2478 276.903 30.1506 279.25 30.1506Z" fill="#DEDDDD"/>
<path d="M91.75 51.8013C94.0972 51.8013 96 49.8985 96 47.5513C96 45.2041 94.0972 43.3013 91.75 43.3013C89.4028 43.3013 87.5 45.2041 87.5 47.5513C87.5 49.8985 89.4028 51.8013 91.75 51.8013Z" fill="#DEDDDD"/>
<path d="M116.75 51.8013C119.097 51.8013 121 49.8985 121 47.5513C121 45.2041 119.097 43.3013 116.75 43.3013C114.403 43.3013 112.5 45.2041 112.5 47.5513C112.5 49.8985 114.403 51.8013 116.75 51.8013Z" fill="#DEDDDD"/>
<path d="M141.75 51.8013C144.097 51.8013 146 49.8985 146 47.5513C146 45.2041 144.097 43.3013 141.75 43.3013C139.403 43.3013 137.5 45.2041 137.5 47.5513C137.5 49.8985 139.403 51.8013 141.75 51.8013Z" fill="#DEDDDD"/>
<path d="M166.75 51.8013C169.097 51.8013 171 49.8985 171 47.5513C171 45.2041 169.097 43.3013 166.75 43.3013C164.403 43.3013 162.5 45.2041 162.5 47.5513C162.5 49.8985 164.403 51.8013 166.75 51.8013Z" fill="#DEDDDD"/>
<path d="M191.75 51.8013C194.097 51.8013 196 49.8985 196 47.5513C196 45.2041 194.097 43.3013 191.75 43.3013C189.403 43.3013 187.5 45.2041 187.5 47.5513C187.5 49.8985 189.403 51.8013 191.75 51.8013Z" fill="#DEDDDD"/>
<path d="M216.75 51.8013C219.097 51.8013 221 49.8985 221 47.5513C221 45.2041 219.097 43.3013 216.75 43.3013C214.403 43.3013 212.5 45.2041 212.5 47.5513C212.5 49.8985 214.403 51.8013 216.75 51.8013Z" fill="#DEDDDD"/>
<path d="M241.75 51.8013C244.097 51.8013 246 49.8985 246 47.5513C246 45.2041 244.097 43.3013 241.75 43.3013C239.403 43.3013 237.5 45.2041 237.5 47.5513C237.5 49.8985 239.403 51.8013 241.75 51.8013Z" fill="#DEDDDD"/>
<path d="M266.75 51.8013C269.097 51.8013 271 49.8985 271 47.5513C271 45.2041 269.097 43.3013 266.75 43.3013C264.403 43.3013 262.5 45.2041 262.5 47.5513C262.5 49.8985 264.403 51.8013 266.75 51.8013Z" fill="#DEDDDD"/>
<path d="M291.75 51.8013C294.097 51.8013 296 49.8985 296 47.5513C296 45.2041 294.097 43.3013 291.75 43.3013C289.403 43.3013 287.5 45.2041 287.5 47.5513C287.5 49.8985 289.403 51.8013 291.75 51.8013Z" fill="#DEDDDD"/>
<path d="M54.25 73.4519C56.5972 73.4519 58.5 71.5491 58.5 69.2019C58.5 66.8547 56.5972 64.9519 54.25 64.9519C51.9028 64.9519 50 66.8547 50 69.2019C50 71.5491 51.9028 73.4519 54.25 73.4519Z" fill="#DEDDDD"/>
<path d="M79.25 73.4519C81.5972 73.4519 83.5 71.5491 83.5 69.2019C83.5 66.8547 81.5972 64.9519 79.25 64.9519C76.9028 64.9519 75 66.8547 75 69.2019C75 71.5491 76.9028 73.4519 79.25 73.4519Z" fill="#DEDDDD"/>
<path d="M104.25 73.4519C106.597 73.4519 108.5 71.5491 108.5 69.2019C108.5 66.8547 106.597 64.9519 104.25 64.9519C101.903 64.9519 100 66.8547 100 69.2019C100 71.5491 101.903 73.4519 104.25 73.4519Z" fill="#DEDDDD"/>
<path d="M129.25 73.4519C131.597 73.4519 133.5 71.5491 133.5 69.2019C133.5 66.8547 131.597 64.9519 129.25 64.9519C126.903 64.9519 125 66.8547 125 69.2019C125 71.5491 126.903 73.4519 129.25 73.4519Z" fill="#DEDDDD"/>
<path d="M154.25 73.4519C156.597 73.4519 158.5 71.5491 158.5 69.2019C158.5 66.8547 156.597 64.9519 154.25 64.9519C151.903 64.9519 150 66.8547 150 69.2019C150 71.5491 151.903 73.4519 154.25 73.4519Z" fill="#DEDDDD"/>
<path d="M179.25 73.4519C181.597 73.4519 183.5 71.5491 183.5 69.2019C183.5 66.8547 181.597 64.9519 179.25 64.9519C176.903 64.9519 175 66.8547 175 69.2019C175 71.5491 176.903 73.4519 179.25 73.4519Z" fill="#DEDDDD"/>
<path d="M204.25 73.4519C206.597 73.4519 208.5 71.5491 208.5 69.2019C208.5 66.8547 206.597 64.9519 204.25 64.9519C201.903 64.9519 200 66.8547 200 69.2019C200 71.5491 201.903 73.4519 204.25 73.4519Z" fill="#DEDDDD"/>
<path d="M229.25 73.4519C231.597 73.4519 233.5 71.5491 233.5 69.2019C233.5 66.8547 231.597 64.9519 229.25 64.9519C226.903 64.9519 225 66.8547 225 69.2019C225 71.5491 226.903 73.4519 229.25 73.4519Z" fill="#DEDDDD"/>
<path d="M254.25 73.4519C256.597 73.4519 258.5 71.5491 258.5 69.2019C258.5 66.8547 256.597 64.9519 254.25 64.9519C251.903 64.9519 250 66.8547 250 69.2019C250 71.5491 251.903 73.4519 254.25 73.4519Z" fill="#DEDDDD"/>
<path d="M279.25 73.4519C281.597 73.4519 283.5 71.5491 283.5 69.2019C283.5 66.8547 281.597 64.9519 279.25 64.9519C276.903 64.9519 275 66.8547 275 69.2019C275 71.5491 276.903 73.4519 279.25 73.4519Z" fill="#DEDDDD"/>
<path d="M304.25 73.4519C306.597 73.4519 308.5 71.5491 308.5 69.2019C308.5 66.8547 306.597 64.9519 304.25 64.9519C301.903 64.9519 300 66.8547 300 69.2019C300 71.5491 301.903 73.4519 304.25 73.4519Z" fill="#DEDDDD"/>
<path d="M66.75 95.1025C69.0972 95.1025 71 93.1998 71 90.8525C71 88.5053 69.0972 86.6025 66.75 86.6025C64.4028 86.6025 62.5 88.5053 62.5 90.8525C62.5 93.1998 64.4028 95.1025 66.75 95.1025Z" fill="#DEDDDD"/>
<path d="M91.75 95.1025C94.0972 95.1025 96 93.1998 96 90.8525C96 88.5053 94.0972 86.6025 91.75 86.6025C89.4028 86.6025 87.5 88.5053 87.5 90.8525C87.5 93.1998 89.4028 95.1025 91.75 95.1025Z" fill="#DEDDDD"/>
<path d="M116.75 95.1025C119.097 95.1025 121 93.1998 121 90.8525C121 88.5053 119.097 86.6025 116.75 86.6025C114.403 86.6025 112.5 88.5053 112.5 90.8525C112.5 93.1998 114.403 95.1025 116.75 95.1025Z" fill="#DEDDDD"/>
<path d="M141.75 95.1025C144.097 95.1025 146 93.1998 146 90.8525C146 88.5053 144.097 86.6025 141.75 86.6025C139.403 86.6025 137.5 88.5053 137.5 90.8525C137.5 93.1998 139.403 95.1025 141.75 95.1025Z" fill="#DEDDDD"/>
<path d="M166.75 95.1025C169.097 95.1025 171 93.1998 171 90.8525C171 88.5053 169.097 86.6025 166.75 86.6025C164.403 86.6025 162.5 88.5053 162.5 90.8525C162.5 93.1998 164.403 95.1025 166.75 95.1025Z" fill="#DEDDDD"/>
<path d="M191.75 95.1025C194.097 95.1025 196 93.1998 196 90.8525C196 88.5053 194.097 86.6025 191.75 86.6025C189.403 86.6025 187.5 88.5053 187.5 90.8525C187.5 93.1998 189.403 95.1025 191.75 95.1025Z" fill="#DEDDDD"/>
<path d="M216.75 95.1025C219.097 95.1025 221 93.1998 221 90.8525C221 88.5053 219.097 86.6025 216.75 86.6025C214.403 86.6025 212.5 88.5053 212.5 90.8525C212.5 93.1998 214.403 95.1025 216.75 95.1025Z" fill="#DEDDDD"/>
<path d="M241.75 95.1025C244.097 95.1025 246 93.1998 246 90.8525C246 88.5053 244.097 86.6025 241.75 86.6025C239.403 86.6025 237.5 88.5053 237.5 90.8525C237.5 93.1998 239.403 95.1025 241.75 95.1025Z" fill="#DEDDDD"/>
<path d="M266.75 95.1025C269.097 95.1025 271 93.1998 271 90.8525C271 88.5053 269.097 86.6025 266.75 86.6025C264.403 86.6025 262.5 88.5053 262.5 90.8525C262.5 93.1998 264.403 95.1025 266.75 95.1025Z" fill="#DEDDDD"/>
<path d="M291.75 95.1025C294.097 95.1025 296 93.1998 296 90.8525C296 88.5053 294.097 86.6025 291.75 86.6025C289.403 86.6025 287.5 88.5053 287.5 90.8525C287.5 93.1998 289.403 95.1025 291.75 95.1025Z" fill="#DEDDDD"/>
<path d="M104.25 116.753C106.597 116.753 108.5 114.85 108.5 112.503C108.5 110.156 106.597 108.253 104.25 108.253C101.903 108.253 100 110.156 100 112.503C100 114.85 101.903 116.753 104.25 116.753Z" fill="#DEDDDD"/>
<path d="M129.25 116.753C131.597 116.753 133.5 114.85 133.5 112.503C133.5 110.156 131.597 108.253 129.25 108.253C126.903 108.253 125 110.156 125 112.503C125 114.85 126.903 116.753 129.25 116.753Z" fill="#DEDDDD"/>
<path d="M154.25 116.753C156.597 116.753 158.5 114.85 158.5 112.503C158.5 110.156 156.597 108.253 154.25 108.253C151.903 108.253 150 110.156 150 112.503C150 114.85 151.903 116.753 154.25 116.753Z" fill="#DEDDDD"/>
<path d="M179.25 116.753C181.597 116.753 183.5 114.85 183.5 112.503C183.5 110.156 181.597 108.253 179.25 108.253C176.903 108.253 175 110.156 175 112.503C175 114.85 176.903 116.753 179.25 116.753Z" fill="#DEDDDD"/>
<path d="M204.25 116.753C206.597 116.753 208.5 114.85 208.5 112.503C208.5 110.156 206.597 108.253 204.25 108.253C201.903 108.253 200 110.156 200 112.503C200 114.85 201.903 116.753 204.25 116.753Z" fill="#DEDDDD"/>
<path d="M229.25 116.753C231.597 116.753 233.5 114.85 233.5 112.503C233.5 110.156 231.597 108.253 229.25 108.253C226.903 108.253 225 110.156 225 112.503C225 114.85 226.903 116.753 229.25 116.753Z" fill="#DEDDDD"/>
<path d="M254.25 116.753C256.597 116.753 258.5 114.85 258.5 112.503C258.5 110.156 256.597 108.253 254.25 108.253C251.903 108.253 250 110.156 250 112.503C250 114.85 251.903 116.753 254.25 116.753Z" fill="#DEDDDD"/>
<path d="M279.25 116.753C281.597 116.753 283.5 114.85 283.5 112.503C283.5 110.156 281.597 108.253 279.25 108.253C276.903 108.253 275 110.156 275 112.503C275 114.85 276.903 116.753 279.25 116.753Z" fill="#DEDDDD"/>
<path d="M304.25 116.753C306.597 116.753 308.5 114.85 308.5 112.503C308.5 110.156 306.597 108.253 304.25 108.253C301.903 108.253 300 110.156 300 112.503C300 114.85 301.903 116.753 304.25 116.753Z" fill="#DEDDDD"/>
<path d="M66.75 138.404C69.0972 138.404 71 136.501 71 134.154C71 131.807 69.0972 129.904 66.75 129.904C64.4028 129.904 62.5 131.807 62.5 134.154C62.5 136.501 64.4028 138.404 66.75 138.404Z" fill="#DEDDDD"/>
<path d="M91.75 138.404C94.0972 138.404 96 136.501 96 134.154C96 131.807 94.0972 129.904 91.75 129.904C89.4028 129.904 87.5 131.807 87.5 134.154C87.5 136.501 89.4028 138.404 91.75 138.404Z" fill="#DEDDDD"/>
<path d="M116.75 138.404C119.097 138.404 121 136.501 121 134.154C121 131.807 119.097 129.904 116.75 129.904C114.403 129.904 112.5 131.807 112.5 134.154C112.5 136.501 114.403 138.404 116.75 138.404Z" fill="#DEDDDD"/>
<path d="M141.75 138.404C144.097 138.404 146 136.501 146 134.154C146 131.807 144.097 129.904 141.75 129.904C139.403 129.904 137.5 131.807 137.5 134.154C137.5 136.501 139.403 138.404 141.75 138.404Z" fill="#DEDDDD"/>
<path d="M166.75 138.404C169.097 138.404 171 136.501 171 134.154C171 131.807 169.097 129.904 166.75 129.904C164.403 129.904 162.5 131.807 162.5 134.154C162.5 136.501 164.403 138.404 166.75 138.404Z" fill="#DEDDDD"/>
<path d="M191.75 138.404C194.097 138.404 196 136.501 196 134.154C196 131.807 194.097 129.904 191.75 129.904C189.403 129.904 187.5 131.807 187.5 134.154C187.5 136.501 189.403 138.404 191.75 138.404Z" fill="#DEDDDD"/>
<path d="M216.75 138.404C219.097 138.404 221 136.501 221 134.154C221 131.807 219.097 129.904 216.75 129.904C214.403 129.904 212.5 131.807 212.5 134.154C212.5 136.501 214.403 138.404 216.75 138.404Z" fill="#DEDDDD"/>
<path d="M241.75 138.404C244.097 138.404 246 136.501 246 134.154C246 131.807 244.097 129.904 241.75 129.904C239.403 129.904 237.5 131.807 237.5 134.154C237.5 136.501 239.403 138.404 241.75 138.404Z" fill="#DEDDDD"/>
<path d="M266.75 138.404C269.097 138.404 271 136.501 271 134.154C271 131.807 269.097 129.904 266.75 129.904C264.403 129.904 262.5 131.807 262.5 134.154C262.5 136.501 264.403 138.404 266.75 138.404Z" fill="#DEDDDD"/>
<path d="M291.75 138.404C294.097 138.404 296 136.501 296 134.154C296 131.807 294.097 129.904 291.75 129.904C289.403 129.904 287.5 131.807 287.5 134.154C287.5 136.501 289.403 138.404 291.75 138.404Z" fill="#DEDDDD"/>
<path d="M54.25 160.054C56.5972 160.054 58.5 158.152 58.5 155.804C58.5 153.457 56.5972 151.554 54.25 151.554C51.9028 151.554 50 153.457 50 155.804C50 158.152 51.9028 160.054 54.25 160.054Z" fill="#DEDDDD"/>
<path d="M79.25 160.054C81.5972 160.054 83.5 158.152 83.5 155.804C83.5 153.457 81.5972 151.554 79.25 151.554C76.9028 151.554 75 153.457 75 155.804C75 158.152 76.9028 160.054 79.25 160.054Z" fill="#DEDDDD"/>
<path d="M104.25 160.054C106.597 160.054 108.5 158.152 108.5 155.804C108.5 153.457 106.597 151.554 104.25 151.554C101.903 151.554 100 153.457 100 155.804C100 158.152 101.903 160.054 104.25 160.054Z" fill="#DEDDDD"/>
<path d="M129.25 160.054C131.597 160.054 133.5 158.152 133.5 155.804C133.5 153.457 131.597 151.554 129.25 151.554C126.903 151.554 125 153.457 125 155.804C125 158.152 126.903 160.054 129.25 160.054Z" fill="#DEDDDD"/>
<path d="M154.25 160.054C156.597 160.054 158.5 158.152 158.5 155.804C158.5 153.457 156.597 151.554 154.25 151.554C151.903 151.554 150 153.457 150 155.804C150 158.152 151.903 160.054 154.25 160.054Z" fill="#DEDDDD"/>
<path d="M179.25 160.054C181.597 160.054 183.5 158.152 183.5 155.804C183.5 153.457 181.597 151.554 179.25 151.554C176.903 151.554 175 153.457 175 155.804C175 158.152 176.903 160.054 179.25 160.054Z" fill="#DEDDDD"/>
<path d="M204.25 160.054C206.597 160.054 208.5 158.152 208.5 155.804C208.5 153.457 206.597 151.554 204.25 151.554C201.903 151.554 200 153.457 200 155.804C200 158.152 201.903 160.054 204.25 160.054Z" fill="#DEDDDD"/>
<path d="M229.25 160.054C231.597 160.054 233.5 158.152 233.5 155.804C233.5 153.457 231.597 151.554 229.25 151.554C226.903 151.554 225 153.457 225 155.804C225 158.152 226.903 160.054 229.25 160.054Z" fill="#DEDDDD"/>
<path d="M254.25 160.054C256.597 160.054 258.5 158.152 258.5 155.804C258.5 153.457 256.597 151.554 254.25 151.554C251.903 151.554 250 153.457 250 155.804C250 158.152 251.903 160.054 254.25 160.054Z" fill="#DEDDDD"/>
<path d="M279.25 160.054C281.597 160.054 283.5 158.152 283.5 155.804C283.5 153.457 281.597 151.554 279.25 151.554C276.903 151.554 275 153.457 275 155.804C275 158.152 276.903 160.054 279.25 160.054Z" fill="#DEDDDD"/>
<path d="M304.25 160.054C306.597 160.054 308.5 158.152 308.5 155.804C308.5 153.457 306.597 151.554 304.25 151.554C301.903 151.554 300 153.457 300 155.804C300 158.152 301.903 160.054 304.25 160.054Z" fill="#DEDDDD"/>
<path d="M116.75 181.705C119.097 181.705 121 179.802 121 177.455C121 175.108 119.097 173.205 116.75 173.205C114.403 173.205 112.5 175.108 112.5 177.455C112.5 179.802 114.403 181.705 116.75 181.705Z" fill="#DEDDDD"/>
<path d="M141.75 181.705C144.097 181.705 146 179.802 146 177.455C146 175.108 144.097 173.205 141.75 173.205C139.403 173.205 137.5 175.108 137.5 177.455C137.5 179.802 139.403 181.705 141.75 181.705Z" fill="#DEDDDD"/>
<path d="M166.75 181.705C169.097 181.705 171 179.802 171 177.455C171 175.108 169.097 173.205 166.75 173.205C164.403 173.205 162.5 175.108 162.5 177.455C162.5 179.802 164.403 181.705 166.75 181.705Z" fill="#DEDDDD"/>
<path d="M191.75 181.705C194.097 181.705 196 179.802 196 177.455C196 175.108 194.097 173.205 191.75 173.205C189.403 173.205 187.5 175.108 187.5 177.455C187.5 179.802 189.403 181.705 191.75 181.705Z" fill="#DEDDDD"/>
<path d="M216.75 181.705C219.097 181.705 221 179.802 221 177.455C221 175.108 219.097 173.205 216.75 173.205C214.403 173.205 212.5 175.108 212.5 177.455C212.5 179.802 214.403 181.705 216.75 181.705Z" fill="#DEDDDD"/>
<path d="M241.75 181.705C244.097 181.705 246 179.802 246 177.455C246 175.108 244.097 173.205 241.75 173.205C239.403 173.205 237.5 175.108 237.5 177.455C237.5 179.802 239.403 181.705 241.75 181.705Z" fill="#DEDDDD"/>
<path d="M266.75 181.705C269.097 181.705 271 179.802 271 177.455C271 175.108 269.097 173.205 266.75 173.205C264.403 173.205 262.5 175.108 262.5 177.455C262.5 179.802 264.403 181.705 266.75 181.705Z" fill="#DEDDDD"/>
<path d="M291.75 181.705C294.097 181.705 296 179.802 296 177.455C296 175.108 294.097 173.205 291.75 173.205C289.403 173.205 287.5 175.108 287.5 177.455C287.5 179.802 289.403 181.705 291.75 181.705Z" fill="#DEDDDD"/>
<path d="M4.25 203.356C6.59721 203.356 8.5 201.453 8.5 199.106C8.5 196.759 6.59721 194.856 4.25 194.856C1.90279 194.856 0 196.759 0 199.106C0 201.453 1.90279 203.356 4.25 203.356Z" fill="#DEDDDD"/>
<path d="M104.25 203.356C106.597 203.356 108.5 201.453 108.5 199.106C108.5 196.759 106.597 194.856 104.25 194.856C101.903 194.856 100 196.759 100 199.106C100 201.453 101.903 203.356 104.25 203.356Z" fill="#DEDDDD"/>
<path d="M129.25 203.356C131.597 203.356 133.5 201.453 133.5 199.106C133.5 196.759 131.597 194.856 129.25 194.856C126.903 194.856 125 196.759 125 199.106C125 201.453 126.903 203.356 129.25 203.356Z" fill="#DEDDDD"/>
<path d="M154.25 203.356C156.597 203.356 158.5 201.453 158.5 199.106C158.5 196.759 156.597 194.856 154.25 194.856C151.903 194.856 150 196.759 150 199.106C150 201.453 151.903 203.356 154.25 203.356Z" fill="#DEDDDD"/>
<path d="M179.25 203.356C181.597 203.356 183.5 201.453 183.5 199.106C183.5 196.759 181.597 194.856 179.25 194.856C176.903 194.856 175 196.759 175 199.106C175 201.453 176.903 203.356 179.25 203.356Z" fill="#DEDDDD"/>
<path d="M204.25 203.356C206.597 203.356 208.5 201.453 208.5 199.106C208.5 196.759 206.597 194.856 204.25 194.856C201.903 194.856 200 196.759 200 199.106C200 201.453 201.903 203.356 204.25 203.356Z" fill="#DEDDDD"/>
<path d="M229.25 203.356C231.597 203.356 233.5 201.453 233.5 199.106C233.5 196.759 231.597 194.856 229.25 194.856C226.903 194.856 225 196.759 225 199.106C225 201.453 226.903 203.356 229.25 203.356Z" fill="#DEDDDD"/>
<path d="M254.25 203.356C256.597 203.356 258.5 201.453 258.5 199.106C258.5 196.759 256.597 194.856 254.25 194.856C251.903 194.856 250 196.759 250 199.106C250 201.453 251.903 203.356 254.25 203.356Z" fill="#DEDDDD"/>
<path d="M279.25 203.356C281.597 203.356 283.5 201.453 283.5 199.106C283.5 196.759 281.597 194.856 279.25 194.856C276.903 194.856 275 196.759 275 199.106C275 201.453 276.903 203.356 279.25 203.356Z" fill="#DEDDDD"/>
<path d="M304.25 203.356C306.597 203.356 308.5 201.453 308.5 199.106C308.5 196.759 306.597 194.856 304.25 194.856C301.903 194.856 300 196.759 300 199.106C300 201.453 301.903 203.356 304.25 203.356Z" fill="#DEDDDD"/>
<path d="M66.75 225.006C69.0972 225.006 71 223.104 71 220.756C71 218.409 69.0972 216.506 66.75 216.506C64.4028 216.506 62.5 218.409 62.5 220.756C62.5 223.104 64.4028 225.006 66.75 225.006Z" fill="#DEDDDD"/>
<path d="M91.75 225.006C94.0972 225.006 96 223.104 96 220.756C96 218.409 94.0972 216.506 91.75 216.506C89.4028 216.506 87.5 218.409 87.5 220.756C87.5 223.104 89.4028 225.006 91.75 225.006Z" fill="#DEDDDD"/>
<path d="M116.75 225.006C119.097 225.006 121 223.104 121 220.756C121 218.409 119.097 216.506 116.75 216.506C114.403 216.506 112.5 218.409 112.5 220.756C112.5 223.104 114.403 225.006 116.75 225.006Z" fill="#DEDDDD"/>
<path d="M141.75 225.006C144.097 225.006 146 223.104 146 220.756C146 218.409 144.097 216.506 141.75 216.506C139.403 216.506 137.5 218.409 137.5 220.756C137.5 223.104 139.403 225.006 141.75 225.006Z" fill="#DEDDDD"/>
<path d="M166.75 225.006C169.097 225.006 171 223.104 171 220.756C171 218.409 169.097 216.506 166.75 216.506C164.403 216.506 162.5 218.409 162.5 220.756C162.5 223.104 164.403 225.006 166.75 225.006Z" fill="#DEDDDD"/>
<path d="M191.75 225.006C194.097 225.006 196 223.104 196 220.756C196 218.409 194.097 216.506 191.75 216.506C189.403 216.506 187.5 218.409 187.5 220.756C187.5 223.104 189.403 225.006 191.75 225.006Z" fill="#DEDDDD"/>
<path d="M216.75 225.006C219.097 225.006 221 223.104 221 220.756C221 218.409 219.097 216.506 216.75 216.506C214.403 216.506 212.5 218.409 212.5 220.756C212.5 223.104 214.403 225.006 216.75 225.006Z" fill="#DEDDDD"/>
<path d="M241.75 225.006C244.097 225.006 246 223.104 246 220.756C246 218.409 244.097 216.506 241.75 216.506C239.403 216.506 237.5 218.409 237.5 220.756C237.5 223.104 239.403 225.006 241.75 225.006Z" fill="#DEDDDD"/>
<path d="M266.75 225.006C269.097 225.006 271 223.104 271 220.756C271 218.409 269.097 216.506 266.75 216.506C264.403 216.506 262.5 218.409 262.5 220.756C262.5 223.104 264.403 225.006 266.75 225.006Z" fill="#DEDDDD"/>
<path d="M291.75 225.006C294.097 225.006 296 223.104 296 220.756C296 218.409 294.097 216.506 291.75 216.506C289.403 216.506 287.5 218.409 287.5 220.756C287.5 223.104 289.403 225.006 291.75 225.006Z" fill="#DEDDDD"/>
<path d="M54.25 246.657C56.5972 246.657 58.5 244.754 58.5 242.407C58.5 240.06 56.5972 238.157 54.25 238.157C51.9028 238.157 50 240.06 50 242.407C50 244.754 51.9028 246.657 54.25 246.657Z" fill="#DEDDDD"/>
<path d="M79.25 246.657C81.5972 246.657 83.5 244.754 83.5 242.407C83.5 240.06 81.5972 238.157 79.25 238.157C76.9028 238.157 75 240.06 75 242.407C75 244.754 76.9028 246.657 79.25 246.657Z" fill="#DEDDDD"/>
<path d="M104.25 246.657C106.597 246.657 108.5 244.754 108.5 242.407C108.5 240.06 106.597 238.157 104.25 238.157C101.903 238.157 100 240.06 100 242.407C100 244.754 101.903 246.657 104.25 246.657Z" fill="#DEDDDD"/>
<path d="M129.25 246.657C131.597 246.657 133.5 244.754 133.5 242.407C133.5 240.06 131.597 238.157 129.25 238.157C126.903 238.157 125 240.06 125 242.407C125 244.754 126.903 246.657 129.25 246.657Z" fill="#DEDDDD"/>
<path d="M154.25 246.657C156.597 246.657 158.5 244.754 158.5 242.407C158.5 240.06 156.597 238.157 154.25 238.157C151.903 238.157 150 240.06 150 242.407C150 244.754 151.903 246.657 154.25 246.657Z" fill="#DEDDDD"/>
<path d="M179.25 246.657C181.597 246.657 183.5 244.754 183.5 242.407C183.5 240.06 181.597 238.157 179.25 238.157C176.903 238.157 175 240.06 175 242.407C175 244.754 176.903 246.657 179.25 246.657Z" fill="#DEDDDD"/>
<path d="M204.25 246.657C206.597 246.657 208.5 244.754 208.5 242.407C208.5 240.06 206.597 238.157 204.25 238.157C201.903 238.157 200 240.06 200 242.407C200 244.754 201.903 246.657 204.25 246.657Z" fill="#DEDDDD"/>
<path d="M229.25 246.657C231.597 246.657 233.5 244.754 233.5 242.407C233.5 240.06 231.597 238.157 229.25 238.157C226.903 238.157 225 240.06 225 242.407C225 244.754 226.903 246.657 229.25 246.657Z" fill="#DEDDDD"/>
<path d="M254.25 246.657C256.597 246.657 258.5 244.754 258.5 242.407C258.5 240.06 256.597 238.157 254.25 238.157C251.903 238.157 250 240.06 250 242.407C250 244.754 251.903 246.657 254.25 246.657Z" fill="#DEDDDD"/>
<path d="M279.25 246.657C281.597 246.657 283.5 244.754 283.5 242.407C283.5 240.06 281.597 238.157 279.25 238.157C276.903 238.157 275 240.06 275 242.407C275 244.754 276.903 246.657 279.25 246.657Z" fill="#DEDDDD"/>
<path d="M304.25 246.657C306.597 246.657 308.5 244.754 308.5 242.407C308.5 240.06 306.597 238.157 304.25 238.157C301.903 238.157 300 240.06 300 242.407C300 244.754 301.903 246.657 304.25 246.657Z" fill="#DEDDDD"/>
<path d="M66.75 268.308C69.0972 268.308 71 266.405 71 264.058C71 261.71 69.0972 259.808 66.75 259.808C64.4028 259.808 62.5 261.71 62.5 264.058C62.5 266.405 64.4028 268.308 66.75 268.308Z" fill="#DEDDDD"/>
<path d="M91.75 268.308C94.0972 268.308 96 266.405 96 264.058C96 261.71 94.0972 259.808 91.75 259.808C89.4028 259.808 87.5 261.71 87.5 264.058C87.5 266.405 89.4028 268.308 91.75 268.308Z" fill="#DEDDDD"/>
<path d="M116.75 268.308C119.097 268.308 121 266.405 121 264.058C121 261.71 119.097 259.808 116.75 259.808C114.403 259.808 112.5 261.71 112.5 264.058C112.5 266.405 114.403 268.308 116.75 268.308Z" fill="#DEDDDD"/>
<path d="M141.75 268.308C144.097 268.308 146 266.405 146 264.058C146 261.71 144.097 259.808 141.75 259.808C139.403 259.808 137.5 261.71 137.5 264.058C137.5 266.405 139.403 268.308 141.75 268.308Z" fill="#DEDDDD"/>
<path d="M166.75 268.308C169.097 268.308 171 266.405 171 264.058C171 261.71 169.097 259.808 166.75 259.808C164.403 259.808 162.5 261.71 162.5 264.058C162.5 266.405 164.403 268.308 166.75 268.308Z" fill="#DEDDDD"/>
<path d="M191.75 268.308C194.097 268.308 196 266.405 196 264.058C196 261.71 194.097 259.808 191.75 259.808C189.403 259.808 187.5 261.71 187.5 264.058C187.5 266.405 189.403 268.308 191.75 268.308Z" fill="#DEDDDD"/>
<path d="M216.75 268.308C219.097 268.308 221 266.405 221 264.058C221 261.71 219.097 259.808 216.75 259.808C214.403 259.808 212.5 261.71 212.5 264.058C212.5 266.405 214.403 268.308 216.75 268.308Z" fill="#DEDDDD"/>
<path d="M266.75 268.308C269.097 268.308 271 266.405 271 264.058C271 261.71 269.097 259.808 266.75 259.808C264.403 259.808 262.5 261.71 262.5 264.058C262.5 266.405 264.403 268.308 266.75 268.308Z" fill="#DEDDDD"/>
<path d="M291.75 268.308C294.097 268.308 296 266.405 296 264.058C296 261.71 294.097 259.808 291.75 259.808C289.403 259.808 287.5 261.71 287.5 264.058C287.5 266.405 289.403 268.308 291.75 268.308Z" fill="#DEDDDD"/>
<path d="M104.25 289.958C106.597 289.958 108.5 288.055 108.5 285.708C108.5 283.361 106.597 281.458 104.25 281.458C101.903 281.458 100 283.361 100 285.708C100 288.055 101.903 289.958 104.25 289.958Z" fill="#DEDDDD"/>
<path d="M129.25 289.958C131.597 289.958 133.5 288.055 133.5 285.708C133.5 283.361 131.597 281.458 129.25 281.458C126.903 281.458 125 283.361 125 285.708C125 288.055 126.903 289.958 129.25 289.958Z" fill="#DEDDDD"/>
<path d="M154.25 289.958C156.597 289.958 158.5 288.055 158.5 285.708C158.5 283.361 156.597 281.458 154.25 281.458C151.903 281.458 150 283.361 150 285.708C150 288.055 151.903 289.958 154.25 289.958Z" fill="#DEDDDD"/>
<path d="M179.25 289.958C181.597 289.958 183.5 288.055 183.5 285.708C183.5 283.361 181.597 281.458 179.25 281.458C176.903 281.458 175 283.361 175 285.708C175 288.055 176.903 289.958 179.25 289.958Z" fill="#DEDDDD"/>
<path d="M204.25 289.958C206.597 289.958 208.5 288.055 208.5 285.708C208.5 283.361 206.597 281.458 204.25 281.458C201.903 281.458 200 283.361 200 285.708C200 288.055 201.903 289.958 204.25 289.958Z" fill="#DEDDDD"/>
<path d="M329.25 289.958C331.597 289.958 333.5 288.055 333.5 285.708C333.5 283.361 331.597 281.458 329.25 281.458C326.903 281.458 325 283.361 325 285.708C325 288.055 326.903 289.958 329.25 289.958Z" fill="#DEDDDD"/>
<path d="M141.75 311.609C144.097 311.609 146 309.706 146 307.359C146 305.012 144.097 303.109 141.75 303.109C139.403 303.109 137.5 305.012 137.5 307.359C137.5 309.706 139.403 311.609 141.75 311.609Z" fill="#DEDDDD"/>
<path d="M166.75 311.609C169.097 311.609 171 309.706 171 307.359C171 305.012 169.097 303.109 166.75 303.109C164.403 303.109 162.5 305.012 162.5 307.359C162.5 309.706 164.403 311.609 166.75 311.609Z" fill="#DEDDDD"/>
<path d="M366.75 311.609C369.097 311.609 371 309.706 371 307.359C371 305.012 369.097 303.109 366.75 303.109C364.403 303.109 362.5 305.012 362.5 307.359C362.5 309.706 364.403 311.609 366.75 311.609Z" fill="#DEDDDD"/>
<path d="M391.75 311.609C394.097 311.609 396 309.706 396 307.359C396 305.012 394.097 303.109 391.75 303.109C389.403 303.109 387.5 305.012 387.5 307.359C387.5 309.706 389.403 311.609 391.75 311.609Z" fill="#DEDDDD"/>
<path d="M179.25 333.26C181.597 333.26 183.5 331.357 183.5 329.01C183.5 326.662 181.597 324.76 179.25 324.76C176.903 324.76 175 326.662 175 329.01C175 331.357 176.903 333.26 179.25 333.26Z" fill="#DEDDDD"/>
<path d="M404.25 333.26C406.597 333.26 408.5 331.357 408.5 329.01C408.5 326.662 406.597 324.76 404.25 324.76C401.903 324.76 400 326.662 400 329.01C400 331.357 401.903 333.26 404.25 333.26Z" fill="#DEDDDD"/>
<path d="M116.75 354.91C119.097 354.91 121 353.007 121 350.66C121 348.313 119.097 346.41 116.75 346.41C114.403 346.41 112.5 348.313 112.5 350.66C112.5 353.007 114.403 354.91 116.75 354.91Z" fill="#DEDDDD"/>
<path d="M416.75 354.91C419.097 354.91 421 353.007 421 350.66C421 348.313 419.097 346.41 416.75 346.41C414.403 346.41 412.5 348.313 412.5 350.66C412.5 353.007 414.403 354.91 416.75 354.91Z" fill="#DEDDDD"/>
<path d="M79.25 376.561C81.5972 376.561 83.5 374.658 83.5 372.311C83.5 369.964 81.5972 368.061 79.25 368.061C76.9028 368.061 75 369.964 75 372.311C75 374.658 76.9028 376.561 79.25 376.561Z" fill="#DEDDDD"/>
<path d="M516.75 484.814C519.097 484.814 521 482.911 521 480.564C521 478.217 519.097 476.314 516.75 476.314C514.403 476.314 512.5 478.217 512.5 480.564C512.5 482.911 514.403 484.814 516.75 484.814Z" fill="#DEDDDD"/>
<path d="M541.75 484.814C544.097 484.814 546 482.911 546 480.564C546 478.217 544.097 476.314 541.75 476.314C539.403 476.314 537.5 478.217 537.5 480.564C537.5 482.911 539.403 484.814 541.75 484.814Z" fill="#DEDDDD"/>
<path d="M566.75 484.814C569.097 484.814 571 482.911 571 480.564C571 478.217 569.097 476.314 566.75 476.314C564.403 476.314 562.5 478.217 562.5 480.564C562.5 482.911 564.403 484.814 566.75 484.814Z" fill="#DEDDDD"/>
<path d="M591.75 484.814C594.097 484.814 596 482.911 596 480.564C596 478.217 594.097 476.314 591.75 476.314C589.403 476.314 587.5 478.217 587.5 480.564C587.5 482.911 589.403 484.814 591.75 484.814Z" fill="#DEDDDD"/>
<path d="M616.75 484.814C619.097 484.814 621 482.911 621 480.564C621 478.217 619.097 476.314 616.75 476.314C614.403 476.314 612.5 478.217 612.5 480.564C612.5 482.911 614.403 484.814 616.75 484.814Z" fill="#DEDDDD"/>
<path d="M641.75 484.814C644.097 484.814 646 482.911 646 480.564C646 478.217 644.097 476.314 641.75 476.314C639.403 476.314 637.5 478.217 637.5 480.564C637.5 482.911 639.403 484.814 641.75 484.814Z" fill="#DEDDDD"/>
<path d="M666.75 484.814C669.097 484.814 671 482.911 671 480.564C671 478.217 669.097 476.314 666.75 476.314C664.403 476.314 662.5 478.217 662.5 480.564C662.5 482.911 664.403 484.814 666.75 484.814Z" fill="#DEDDDD"/>
<path d="M691.75 484.814C694.097 484.814 696 482.911 696 480.564C696 478.217 694.097 476.314 691.75 476.314C689.403 476.314 687.5 478.217 687.5 480.564C687.5 482.911 689.403 484.814 691.75 484.814Z" fill="#DEDDDD"/>
<path d="M716.75 484.814C719.097 484.814 721 482.911 721 480.564C721 478.217 719.097 476.314 716.75 476.314C714.403 476.314 712.5 478.217 712.5 480.564C712.5 482.911 714.403 484.814 716.75 484.814Z" fill="#DEDDDD"/>
<path d="M741.75 484.814C744.097 484.814 746 482.911 746 480.564C746 478.217 744.097 476.314 741.75 476.314C739.403 476.314 737.5 478.217 737.5 480.564C737.5 482.911 739.403 484.814 741.75 484.814Z" fill="#DEDDDD"/>
<path d="M766.75 484.814C769.097 484.814 771 482.911 771 480.564C771 478.217 769.097 476.314 766.75 476.314C764.403 476.314 762.5 478.217 762.5 480.564C762.5 482.911 764.403 484.814 766.75 484.814Z" fill="#DEDDDD"/>
<path d="M791.75 484.814C794.097 484.814 796 482.911 796 480.564C796 478.217 794.097 476.314 791.75 476.314C789.403 476.314 787.5 478.217 787.5 480.564C787.5 482.911 789.403 484.814 791.75 484.814Z" fill="#DEDDDD"/>
<path d="M816.75 484.814C819.097 484.814 821 482.911 821 480.564C821 478.217 819.097 476.314 816.75 476.314C814.403 476.314 812.5 478.217 812.5 480.564C812.5 482.911 814.403 484.814 816.75 484.814Z" fill="#DEDDDD"/>
<path d="M504.25 506.465C506.597 506.465 508.5 504.562 508.5 502.215C508.5 499.867 506.597 497.965 504.25 497.965C501.903 497.965 500 499.867 500 502.215C500 504.562 501.903 506.465 504.25 506.465Z" fill="#DEDDDD"/>
<path d="M529.25 506.465C531.597 506.465 533.5 504.562 533.5 502.215C533.5 499.867 531.597 497.965 529.25 497.965C526.903 497.965 525 499.867 525 502.215C525 504.562 526.903 506.465 529.25 506.465Z" fill="#DEDDDD"/>
<path d="M554.25 506.465C556.597 506.465 558.5 504.562 558.5 502.215C558.5 499.867 556.597 497.965 554.25 497.965C551.903 497.965 550 499.867 550 502.215C550 504.562 551.903 506.465 554.25 506.465Z" fill="#DEDDDD"/>
<path d="M579.25 506.465C581.597 506.465 583.5 504.562 583.5 502.215C583.5 499.867 581.597 497.965 579.25 497.965C576.903 497.965 575 499.867 575 502.215C575 504.562 576.903 506.465 579.25 506.465Z" fill="#DEDDDD"/>
<path d="M604.25 506.465C606.597 506.465 608.5 504.562 608.5 502.215C608.5 499.867 606.597 497.965 604.25 497.965C601.903 497.965 600 499.867 600 502.215C600 504.562 601.903 506.465 604.25 506.465Z" fill="#DEDDDD"/>
<path d="M629.25 506.465C631.597 506.465 633.5 504.562 633.5 502.215C633.5 499.867 631.597 497.965 629.25 497.965C626.903 497.965 625 499.867 625 502.215C625 504.562 626.903 506.465 629.25 506.465Z" fill="#DEDDDD"/>
<path d="M654.25 506.465C656.597 506.465 658.5 504.562 658.5 502.215C658.5 499.867 656.597 497.965 654.25 497.965C651.903 497.965 650 499.867 650 502.215C650 504.562 651.903 506.465 654.25 506.465Z" fill="#DEDDDD"/>
<path d="M679.25 506.465C681.597 506.465 683.5 504.562 683.5 502.215C683.5 499.867 681.597 497.965 679.25 497.965C676.903 497.965 675 499.867 675 502.215C675 504.562 676.903 506.465 679.25 506.465Z" fill="#DEDDDD"/>
<path d="M704.25 506.465C706.597 506.465 708.5 504.562 708.5 502.215C708.5 499.867 706.597 497.965 704.25 497.965C701.903 497.965 700 499.867 700 502.215C700 504.562 701.903 506.465 704.25 506.465Z" fill="#DEDDDD"/>
<path d="M729.25 506.465C731.597 506.465 733.5 504.562 733.5 502.215C733.5 499.867 731.597 497.965 729.25 497.965C726.903 497.965 725 499.867 725 502.215C725 504.562 726.903 506.465 729.25 506.465Z" fill="#DEDDDD"/>
<path d="M754.25 506.465C756.597 506.465 758.5 504.562 758.5 502.215C758.5 499.867 756.597 497.965 754.25 497.965C751.903 497.965 750 499.867 750 502.215C750 504.562 751.903 506.465 754.25 506.465Z" fill="#DEDDDD"/>
<path d="M779.25 506.465C781.597 506.465 783.5 504.562 783.5 502.215C783.5 499.867 781.597 497.965 779.25 497.965C776.903 497.965 775 499.867 775 502.215C775 504.562 776.903 506.465 779.25 506.465Z" fill="#DEDDDD"/>
<path d="M804.25 506.465C806.597 506.465 808.5 504.562 808.5 502.215C808.5 499.867 806.597 497.965 804.25 497.965C801.903 497.965 800 499.867 800 502.215C800 504.562 801.903 506.465 804.25 506.465Z" fill="#DEDDDD"/>
<path d="M829.25 506.465C831.597 506.465 833.5 504.562 833.5 502.215C833.5 499.867 831.597 497.965 829.25 497.965C826.903 497.965 825 499.867 825 502.215C825 504.562 826.903 506.465 829.25 506.465Z" fill="#DEDDDD"/>
<path d="M854.25 506.465C856.597 506.465 858.5 504.562 858.5 502.215C858.5 499.867 856.597 497.965 854.25 497.965C851.903 497.965 850 499.867 850 502.215C850 504.562 851.903 506.465 854.25 506.465Z" fill="#DEDDDD"/>
<path d="M879.25 506.465C881.597 506.465 883.5 504.562 883.5 502.215C883.5 499.867 881.597 497.965 879.25 497.965C876.903 497.965 875 499.867 875 502.215C875 504.562 876.903 506.465 879.25 506.465Z" fill="#DEDDDD"/>
<path d="M1079.25 506.465C1081.6 506.465 1083.5 504.562 1083.5 502.215C1083.5 499.867 1081.6 497.965 1079.25 497.965C1076.9 497.965 1075 499.867 1075 502.215C1075 504.562 1076.9 506.465 1079.25 506.465Z" fill="#DEDDDD"/>
<path d="M516.75 528.115C519.097 528.115 521 526.212 521 523.865C521 521.518 519.097 519.615 516.75 519.615C514.403 519.615 512.5 521.518 512.5 523.865C512.5 526.212 514.403 528.115 516.75 528.115Z" fill="#DEDDDD"/>
<path d="M541.75 528.115C544.097 528.115 546 526.212 546 523.865C546 521.518 544.097 519.615 541.75 519.615C539.403 519.615 537.5 521.518 537.5 523.865C537.5 526.212 539.403 528.115 541.75 528.115Z" fill="#DEDDDD"/>
<path d="M566.75 528.115C569.097 528.115 571 526.212 571 523.865C571 521.518 569.097 519.615 566.75 519.615C564.403 519.615 562.5 521.518 562.5 523.865C562.5 526.212 564.403 528.115 566.75 528.115Z" fill="#DEDDDD"/>
<path d="M591.75 528.115C594.097 528.115 596 526.212 596 523.865C596 521.518 594.097 519.615 591.75 519.615C589.403 519.615 587.5 521.518 587.5 523.865C587.5 526.212 589.403 528.115 591.75 528.115Z" fill="#DEDDDD"/>
<path d="M616.75 528.115C619.097 528.115 621 526.212 621 523.865C621 521.518 619.097 519.615 616.75 519.615C614.403 519.615 612.5 521.518 612.5 523.865C612.5 526.212 614.403 528.115 616.75 528.115Z" fill="#DEDDDD"/>
<path d="M641.75 528.115C644.097 528.115 646 526.212 646 523.865C646 521.518 644.097 519.615 641.75 519.615C639.403 519.615 637.5 521.518 637.5 523.865C637.5 526.212 639.403 528.115 641.75 528.115Z" fill="#DEDDDD"/>
<path d="M666.75 528.115C669.097 528.115 671 526.212 671 523.865C671 521.518 669.097 519.615 666.75 519.615C664.403 519.615 662.5 521.518 662.5 523.865C662.5 526.212 664.403 528.115 666.75 528.115Z" fill="#DEDDDD"/>
<path d="M691.75 528.115C694.097 528.115 696 526.212 696 523.865C696 521.518 694.097 519.615 691.75 519.615C689.403 519.615 687.5 521.518 687.5 523.865C687.5 526.212 689.403 528.115 691.75 528.115Z" fill="#DEDDDD"/>
<path d="M716.75 528.115C719.097 528.115 721 526.212 721 523.865C721 521.518 719.097 519.615 716.75 519.615C714.403 519.615 712.5 521.518 712.5 523.865C712.5 526.212 714.403 528.115 716.75 528.115Z" fill="#DEDDDD"/>
<path d="M741.75 528.115C744.097 528.115 746 526.212 746 523.865C746 521.518 744.097 519.615 741.75 519.615C739.403 519.615 737.5 521.518 737.5 523.865C737.5 526.212 739.403 528.115 741.75 528.115Z" fill="#DEDDDD"/>
<path d="M766.75 528.115C769.097 528.115 771 526.212 771 523.865C771 521.518 769.097 519.615 766.75 519.615C764.403 519.615 762.5 521.518 762.5 523.865C762.5 526.212 764.403 528.115 766.75 528.115Z" fill="#DEDDDD"/>
<path d="M791.75 528.115C794.097 528.115 796 526.212 796 523.865C796 521.518 794.097 519.615 791.75 519.615C789.403 519.615 787.5 521.518 787.5 523.865C787.5 526.212 789.403 528.115 791.75 528.115Z" fill="#DEDDDD"/>
<path d="M816.75 528.115C819.097 528.115 821 526.212 821 523.865C821 521.518 819.097 519.615 816.75 519.615C814.403 519.615 812.5 521.518 812.5 523.865C812.5 526.212 814.403 528.115 816.75 528.115Z" fill="#DEDDDD"/>
<path d="M841.75 528.115C844.097 528.115 846 526.212 846 523.865C846 521.518 844.097 519.615 841.75 519.615C839.403 519.615 837.5 521.518 837.5 523.865C837.5 526.212 839.403 528.115 841.75 528.115Z" fill="#DEDDDD"/>
<path d="M866.75 528.115C869.097 528.115 871 526.212 871 523.865C871 521.518 869.097 519.615 866.75 519.615C864.403 519.615 862.5 521.518 862.5 523.865C862.5 526.212 864.403 528.115 866.75 528.115Z" fill="#DEDDDD"/>
<path d="M891.75 528.115C894.097 528.115 896 526.212 896 523.865C896 521.518 894.097 519.615 891.75 519.615C889.403 519.615 887.5 521.518 887.5 523.865C887.5 526.212 889.403 528.115 891.75 528.115Z" fill="#DEDDDD"/>
<path d="M916.75 528.115C919.097 528.115 921 526.212 921 523.865C921 521.518 919.097 519.615 916.75 519.615C914.403 519.615 912.5 521.518 912.5 523.865C912.5 526.212 914.403 528.115 916.75 528.115Z" fill="#DEDDDD"/>
<path d="M1066.75 528.115C1069.1 528.115 1071 526.212 1071 523.865C1071 521.518 1069.1 519.615 1066.75 519.615C1064.4 519.615 1062.5 521.518 1062.5 523.865C1062.5 526.212 1064.4 528.115 1066.75 528.115Z" fill="#DEDDDD"/>
<path d="M504.25 549.766C506.597 549.766 508.5 547.863 508.5 545.516C508.5 543.169 506.597 541.266 504.25 541.266C501.903 541.266 500 543.169 500 545.516C500 547.863 501.903 549.766 504.25 549.766Z" fill="#DEDDDD"/>
<path d="M529.25 549.766C531.597 549.766 533.5 547.863 533.5 545.516C533.5 543.169 531.597 541.266 529.25 541.266C526.903 541.266 525 543.169 525 545.516C525 547.863 526.903 549.766 529.25 549.766Z" fill="#DEDDDD"/>
<path d="M554.25 549.766C556.597 549.766 558.5 547.863 558.5 545.516C558.5 543.169 556.597 541.266 554.25 541.266C551.903 541.266 550 543.169 550 545.516C550 547.863 551.903 549.766 554.25 549.766Z" fill="#DEDDDD"/>
<path d="M579.25 549.766C581.597 549.766 583.5 547.863 583.5 545.516C583.5 543.169 581.597 541.266 579.25 541.266C576.903 541.266 575 543.169 575 545.516C575 547.863 576.903 549.766 579.25 549.766Z" fill="#DEDDDD"/>
<path d="M604.25 549.766C606.597 549.766 608.5 547.863 608.5 545.516C608.5 543.169 606.597 541.266 604.25 541.266C601.903 541.266 600 543.169 600 545.516C600 547.863 601.903 549.766 604.25 549.766Z" fill="#DEDDDD"/>
<path d="M629.25 549.766C631.597 549.766 633.5 547.863 633.5 545.516C633.5 543.169 631.597 541.266 629.25 541.266C626.903 541.266 625 543.169 625 545.516C625 547.863 626.903 549.766 629.25 549.766Z" fill="#DEDDDD"/>
<path d="M654.25 549.766C656.597 549.766 658.5 547.863 658.5 545.516C658.5 543.169 656.597 541.266 654.25 541.266C651.903 541.266 650 543.169 650 545.516C650 547.863 651.903 549.766 654.25 549.766Z" fill="#DEDDDD"/>
<path d="M679.25 549.766C681.597 549.766 683.5 547.863 683.5 545.516C683.5 543.169 681.597 541.266 679.25 541.266C676.903 541.266 675 543.169 675 545.516C675 547.863 676.903 549.766 679.25 549.766Z" fill="#DEDDDD"/>
<path d="M704.25 549.766C706.597 549.766 708.5 547.863 708.5 545.516C708.5 543.169 706.597 541.266 704.25 541.266C701.903 541.266 700 543.169 700 545.516C700 547.863 701.903 549.766 704.25 549.766Z" fill="#DEDDDD"/>
<path d="M729.25 549.766C731.597 549.766 733.5 547.863 733.5 545.516C733.5 543.169 731.597 541.266 729.25 541.266C726.903 541.266 725 543.169 725 545.516C725 547.863 726.903 549.766 729.25 549.766Z" fill="#DEDDDD"/>
<path d="M754.25 549.766C756.597 549.766 758.5 547.863 758.5 545.516C758.5 543.169 756.597 541.266 754.25 541.266C751.903 541.266 750 543.169 750 545.516C750 547.863 751.903 549.766 754.25 549.766Z" fill="#DEDDDD"/>
<path d="M779.25 549.766C781.597 549.766 783.5 547.863 783.5 545.516C783.5 543.169 781.597 541.266 779.25 541.266C776.903 541.266 775 543.169 775 545.516C775 547.863 776.903 549.766 779.25 549.766Z" fill="#DEDDDD"/>
<path d="M804.25 549.766C806.597 549.766 808.5 547.863 808.5 545.516C808.5 543.169 806.597 541.266 804.25 541.266C801.903 541.266 800 543.169 800 545.516C800 547.863 801.903 549.766 804.25 549.766Z" fill="#DEDDDD"/>
<path d="M829.25 549.766C831.597 549.766 833.5 547.863 833.5 545.516C833.5 543.169 831.597 541.266 829.25 541.266C826.903 541.266 825 543.169 825 545.516C825 547.863 826.903 549.766 829.25 549.766Z" fill="#DEDDDD"/>
<path d="M854.25 549.766C856.597 549.766 858.5 547.863 858.5 545.516C858.5 543.169 856.597 541.266 854.25 541.266C851.903 541.266 850 543.169 850 545.516C850 547.863 851.903 549.766 854.25 549.766Z" fill="#DEDDDD"/>
<path d="M879.25 549.766C881.597 549.766 883.5 547.863 883.5 545.516C883.5 543.169 881.597 541.266 879.25 541.266C876.903 541.266 875 543.169 875 545.516C875 547.863 876.903 549.766 879.25 549.766Z" fill="#DEDDDD"/>
<path d="M904.25 549.766C906.597 549.766 908.5 547.863 908.5 545.516C908.5 543.169 906.597 541.266 904.25 541.266C901.903 541.266 900 543.169 900 545.516C900 547.863 901.903 549.766 904.25 549.766Z" fill="#DEDDDD"/>
<path d="M929.25 549.766C931.597 549.766 933.5 547.863 933.5 545.516C933.5 543.169 931.597 541.266 929.25 541.266C926.903 541.266 925 543.169 925 545.516C925 547.863 926.903 549.766 929.25 549.766Z" fill="#DEDDDD"/>
<path d="M1004.25 549.766C1006.6 549.766 1008.5 547.863 1008.5 545.516C1008.5 543.169 1006.6 541.266 1004.25 541.266C1001.9 541.266 1000 543.169 1000 545.516C1000 547.863 1001.9 549.766 1004.25 549.766Z" fill="#DEDDDD"/>
<path d="M1029.25 549.766C1031.6 549.766 1033.5 547.863 1033.5 545.516C1033.5 543.169 1031.6 541.266 1029.25 541.266C1026.9 541.266 1025 543.169 1025 545.516C1025 547.863 1026.9 549.766 1029.25 549.766Z" fill="#DEDDDD"/>
<path d="M1054.25 549.766C1056.6 549.766 1058.5 547.863 1058.5 545.516C1058.5 543.169 1056.6 541.266 1054.25 541.266C1051.9 541.266 1050 543.169 1050 545.516C1050 547.863 1051.9 549.766 1054.25 549.766Z" fill="#DEDDDD"/>
<path d="M491.75 571.417C494.097 571.417 496 569.514 496 567.167C496 564.819 494.097 562.917 491.75 562.917C489.403 562.917 487.5 564.819 487.5 567.167C487.5 569.514 489.403 571.417 491.75 571.417Z" fill="#DEDDDD"/>
<path d="M516.75 571.417C519.097 571.417 521 569.514 521 567.167C521 564.819 519.097 562.917 516.75 562.917C514.403 562.917 512.5 564.819 512.5 567.167C512.5 569.514 514.403 571.417 516.75 571.417Z" fill="#DEDDDD"/>
<path d="M541.75 571.417C544.097 571.417 546 569.514 546 567.167C546 564.819 544.097 562.917 541.75 562.917C539.403 562.917 537.5 564.819 537.5 567.167C537.5 569.514 539.403 571.417 541.75 571.417Z" fill="#DEDDDD"/>
<path d="M566.75 571.417C569.097 571.417 571 569.514 571 567.167C571 564.819 569.097 562.917 566.75 562.917C564.403 562.917 562.5 564.819 562.5 567.167C562.5 569.514 564.403 571.417 566.75 571.417Z" fill="#DEDDDD"/>
<path d="M591.75 571.417C594.097 571.417 596 569.514 596 567.167C596 564.819 594.097 562.917 591.75 562.917C589.403 562.917 587.5 564.819 587.5 567.167C587.5 569.514 589.403 571.417 591.75 571.417Z" fill="#DEDDDD"/>
<path d="M616.75 571.417C619.097 571.417 621 569.514 621 567.167C621 564.819 619.097 562.917 616.75 562.917C614.403 562.917 612.5 564.819 612.5 567.167C612.5 569.514 614.403 571.417 616.75 571.417Z" fill="#DEDDDD"/>
<path d="M641.75 571.417C644.097 571.417 646 569.514 646 567.167C646 564.819 644.097 562.917 641.75 562.917C639.403 562.917 637.5 564.819 637.5 567.167C637.5 569.514 639.403 571.417 641.75 571.417Z" fill="#DEDDDD"/>
<path d="M666.75 571.417C669.097 571.417 671 569.514 671 567.167C671 564.819 669.097 562.917 666.75 562.917C664.403 562.917 662.5 564.819 662.5 567.167C662.5 569.514 664.403 571.417 666.75 571.417Z" fill="#DEDDDD"/>
<path d="M691.75 571.417C694.097 571.417 696 569.514 696 567.167C696 564.819 694.097 562.917 691.75 562.917C689.403 562.917 687.5 564.819 687.5 567.167C687.5 569.514 689.403 571.417 691.75 571.417Z" fill="#DEDDDD"/>
<path d="M716.75 571.417C719.097 571.417 721 569.514 721 567.167C721 564.819 719.097 562.917 716.75 562.917C714.403 562.917 712.5 564.819 712.5 567.167C712.5 569.514 714.403 571.417 716.75 571.417Z" fill="#DEDDDD"/>
<path d="M741.75 571.417C744.097 571.417 746 569.514 746 567.167C746 564.819 744.097 562.917 741.75 562.917C739.403 562.917 737.5 564.819 737.5 567.167C737.5 569.514 739.403 571.417 741.75 571.417Z" fill="#DEDDDD"/>
<path d="M766.75 571.417C769.097 571.417 771 569.514 771 567.167C771 564.819 769.097 562.917 766.75 562.917C764.403 562.917 762.5 564.819 762.5 567.167C762.5 569.514 764.403 571.417 766.75 571.417Z" fill="#DEDDDD"/>
<path d="M791.75 571.417C794.097 571.417 796 569.514 796 567.167C796 564.819 794.097 562.917 791.75 562.917C789.403 562.917 787.5 564.819 787.5 567.167C787.5 569.514 789.403 571.417 791.75 571.417Z" fill="#DEDDDD"/>
<path d="M816.75 571.417C819.097 571.417 821 569.514 821 567.167C821 564.819 819.097 562.917 816.75 562.917C814.403 562.917 812.5 564.819 812.5 567.167C812.5 569.514 814.403 571.417 816.75 571.417Z" fill="#DEDDDD"/>
<path d="M841.75 571.417C844.097 571.417 846 569.514 846 567.167C846 564.819 844.097 562.917 841.75 562.917C839.403 562.917 837.5 564.819 837.5 567.167C837.5 569.514 839.403 571.417 841.75 571.417Z" fill="#DEDDDD"/>
<path d="M866.75 571.417C869.097 571.417 871 569.514 871 567.167C871 564.819 869.097 562.917 866.75 562.917C864.403 562.917 862.5 564.819 862.5 567.167C862.5 569.514 864.403 571.417 866.75 571.417Z" fill="#DEDDDD"/>
<path d="M891.75 571.417C894.097 571.417 896 569.514 896 567.167C896 564.819 894.097 562.917 891.75 562.917C889.403 562.917 887.5 564.819 887.5 567.167C887.5 569.514 889.403 571.417 891.75 571.417Z" fill="#DEDDDD"/>
<path d="M916.75 571.417C919.097 571.417 921 569.514 921 567.167C921 564.819 919.097 562.917 916.75 562.917C914.403 562.917 912.5 564.819 912.5 567.167C912.5 569.514 914.403 571.417 916.75 571.417Z" fill="#DEDDDD"/>
<path d="M966.75 571.417C969.097 571.417 971 569.514 971 567.167C971 564.819 969.097 562.917 966.75 562.917C964.403 562.917 962.5 564.819 962.5 567.167C962.5 569.514 964.403 571.417 966.75 571.417Z" fill="#DEDDDD"/>
<path d="M991.75 571.417C994.097 571.417 996 569.514 996 567.167C996 564.819 994.097 562.917 991.75 562.917C989.403 562.917 987.5 564.819 987.5 567.167C987.5 569.514 989.403 571.417 991.75 571.417Z" fill="#DEDDDD"/>
<path d="M1016.75 571.417C1019.1 571.417 1021 569.514 1021 567.167C1021 564.819 1019.1 562.917 1016.75 562.917C1014.4 562.917 1012.5 564.819 1012.5 567.167C1012.5 569.514 1014.4 571.417 1016.75 571.417Z" fill="#DEDDDD"/>
<path d="M1041.75 571.417C1044.1 571.417 1046 569.514 1046 567.167C1046 564.819 1044.1 562.917 1041.75 562.917C1039.4 562.917 1037.5 564.819 1037.5 567.167C1037.5 569.514 1039.4 571.417 1041.75 571.417Z" fill="#DEDDDD"/>
<path d="M504.25 593.067C506.597 593.067 508.5 591.164 508.5 588.817C508.5 586.47 506.597 584.567 504.25 584.567C501.903 584.567 500 586.47 500 588.817C500 591.164 501.903 593.067 504.25 593.067Z" fill="#DEDDDD"/>
<path d="M529.25 593.067C531.597 593.067 533.5 591.164 533.5 588.817C533.5 586.47 531.597 584.567 529.25 584.567C526.903 584.567 525 586.47 525 588.817C525 591.164 526.903 593.067 529.25 593.067Z" fill="#DEDDDD"/>
<path d="M554.25 593.067C556.597 593.067 558.5 591.164 558.5 588.817C558.5 586.47 556.597 584.567 554.25 584.567C551.903 584.567 550 586.47 550 588.817C550 591.164 551.903 593.067 554.25 593.067Z" fill="#DEDDDD"/>
<path d="M579.25 593.067C581.597 593.067 583.5 591.164 583.5 588.817C583.5 586.47 581.597 584.567 579.25 584.567C576.903 584.567 575 586.47 575 588.817C575 591.164 576.903 593.067 579.25 593.067Z" fill="#DEDDDD"/>
<path d="M604.25 593.067C606.597 593.067 608.5 591.164 608.5 588.817C608.5 586.47 606.597 584.567 604.25 584.567C601.903 584.567 600 586.47 600 588.817C600 591.164 601.903 593.067 604.25 593.067Z" fill="#DEDDDD"/>
<path d="M629.25 593.067C631.597 593.067 633.5 591.164 633.5 588.817C633.5 586.47 631.597 584.567 629.25 584.567C626.903 584.567 625 586.47 625 588.817C625 591.164 626.903 593.067 629.25 593.067Z" fill="#DEDDDD"/>
<path d="M654.25 593.067C656.597 593.067 658.5 591.164 658.5 588.817C658.5 586.47 656.597 584.567 654.25 584.567C651.903 584.567 650 586.47 650 588.817C650 591.164 651.903 593.067 654.25 593.067Z" fill="#DEDDDD"/>
<path d="M679.25 593.067C681.597 593.067 683.5 591.164 683.5 588.817C683.5 586.47 681.597 584.567 679.25 584.567C676.903 584.567 675 586.47 675 588.817C675 591.164 676.903 593.067 679.25 593.067Z" fill="#DEDDDD"/>
<path d="M704.25 593.067C706.597 593.067 708.5 591.164 708.5 588.817C708.5 586.47 706.597 584.567 704.25 584.567C701.903 584.567 700 586.47 700 588.817C700 591.164 701.903 593.067 704.25 593.067Z" fill="#DEDDDD"/>
<path d="M729.25 593.067C731.597 593.067 733.5 591.164 733.5 588.817C733.5 586.47 731.597 584.567 729.25 584.567C726.903 584.567 725 586.47 725 588.817C725 591.164 726.903 593.067 729.25 593.067Z" fill="#DEDDDD"/>
<path d="M754.25 593.067C756.597 593.067 758.5 591.164 758.5 588.817C758.5 586.47 756.597 584.567 754.25 584.567C751.903 584.567 750 586.47 750 588.817C750 591.164 751.903 593.067 754.25 593.067Z" fill="#DEDDDD"/>
<path d="M779.25 593.067C781.597 593.067 783.5 591.164 783.5 588.817C783.5 586.47 781.597 584.567 779.25 584.567C776.903 584.567 775 586.47 775 588.817C775 591.164 776.903 593.067 779.25 593.067Z" fill="#DEDDDD"/>
<path d="M804.25 593.067C806.597 593.067 808.5 591.164 808.5 588.817C808.5 586.47 806.597 584.567 804.25 584.567C801.903 584.567 800 586.47 800 588.817C800 591.164 801.903 593.067 804.25 593.067Z" fill="#DEDDDD"/>
<path d="M829.25 593.067C831.597 593.067 833.5 591.164 833.5 588.817C833.5 586.47 831.597 584.567 829.25 584.567C826.903 584.567 825 586.47 825 588.817C825 591.164 826.903 593.067 829.25 593.067Z" fill="#DEDDDD"/>
<path d="M854.25 593.067C856.597 593.067 858.5 591.164 858.5 588.817C858.5 586.47 856.597 584.567 854.25 584.567C851.903 584.567 850 586.47 850 588.817C850 591.164 851.903 593.067 854.25 593.067Z" fill="#DEDDDD"/>
<path d="M879.25 593.067C881.597 593.067 883.5 591.164 883.5 588.817C883.5 586.47 881.597 584.567 879.25 584.567C876.903 584.567 875 586.47 875 588.817C875 591.164 876.903 593.067 879.25 593.067Z" fill="#DEDDDD"/>
<path d="M904.25 593.067C906.597 593.067 908.5 591.164 908.5 588.817C908.5 586.47 906.597 584.567 904.25 584.567C901.903 584.567 900 586.47 900 588.817C900 591.164 901.903 593.067 904.25 593.067Z" fill="#DEDDDD"/>
<path d="M929.25 593.067C931.597 593.067 933.5 591.164 933.5 588.817C933.5 586.47 931.597 584.567 929.25 584.567C926.903 584.567 925 586.47 925 588.817C925 591.164 926.903 593.067 929.25 593.067Z" fill="#DEDDDD"/>
<path d="M954.25 593.067C956.597 593.067 958.5 591.164 958.5 588.817C958.5 586.47 956.597 584.567 954.25 584.567C951.903 584.567 950 586.47 950 588.817C950 591.164 951.903 593.067 954.25 593.067Z" fill="#DEDDDD"/>
<path d="M979.25 593.067C981.597 593.067 983.5 591.164 983.5 588.817C983.5 586.47 981.597 584.567 979.25 584.567C976.903 584.567 975 586.47 975 588.817C975 591.164 976.903 593.067 979.25 593.067Z" fill="#DEDDDD"/>
<path d="M1004.25 593.067C1006.6 593.067 1008.5 591.164 1008.5 588.817C1008.5 586.47 1006.6 584.567 1004.25 584.567C1001.9 584.567 1000 586.47 1000 588.817C1000 591.164 1001.9 593.067 1004.25 593.067Z" fill="#DEDDDD"/>
<path d="M516.75 614.718C519.097 614.718 521 612.815 521 610.468C521 608.121 519.097 606.218 516.75 606.218C514.403 606.218 512.5 608.121 512.5 610.468C512.5 612.815 514.403 614.718 516.75 614.718Z" fill="#DEDDDD"/>
<path d="M541.75 614.718C544.097 614.718 546 612.815 546 610.468C546 608.121 544.097 606.218 541.75 606.218C539.403 606.218 537.5 608.121 537.5 610.468C537.5 612.815 539.403 614.718 541.75 614.718Z" fill="#DEDDDD"/>
<path d="M566.75 614.718C569.097 614.718 571 612.815 571 610.468C571 608.121 569.097 606.218 566.75 606.218C564.403 606.218 562.5 608.121 562.5 610.468C562.5 612.815 564.403 614.718 566.75 614.718Z" fill="#DEDDDD"/>
<path d="M591.75 614.718C594.097 614.718 596 612.815 596 610.468C596 608.121 594.097 606.218 591.75 606.218C589.403 606.218 587.5 608.121 587.5 610.468C587.5 612.815 589.403 614.718 591.75 614.718Z" fill="#DEDDDD"/>
<path d="M616.75 614.718C619.097 614.718 621 612.815 621 610.468C621 608.121 619.097 606.218 616.75 606.218C614.403 606.218 612.5 608.121 612.5 610.468C612.5 612.815 614.403 614.718 616.75 614.718Z" fill="#DEDDDD"/>
<path d="M641.75 614.718C644.097 614.718 646 612.815 646 610.468C646 608.121 644.097 606.218 641.75 606.218C639.403 606.218 637.5 608.121 637.5 610.468C637.5 612.815 639.403 614.718 641.75 614.718Z" fill="#DEDDDD"/>
<path d="M666.75 614.718C669.097 614.718 671 612.815 671 610.468C671 608.121 669.097 606.218 666.75 606.218C664.403 606.218 662.5 608.121 662.5 610.468C662.5 612.815 664.403 614.718 666.75 614.718Z" fill="#DEDDDD"/>
<path d="M691.75 614.718C694.097 614.718 696 612.815 696 610.468C696 608.121 694.097 606.218 691.75 606.218C689.403 606.218 687.5 608.121 687.5 610.468C687.5 612.815 689.403 614.718 691.75 614.718Z" fill="#DEDDDD"/>
<path d="M716.75 614.718C719.097 614.718 721 612.815 721 610.468C721 608.121 719.097 606.218 716.75 606.218C714.403 606.218 712.5 608.121 712.5 610.468C712.5 612.815 714.403 614.718 716.75 614.718Z" fill="#DEDDDD"/>
<path d="M741.75 614.718C744.097 614.718 746 612.815 746 610.468C746 608.121 744.097 606.218 741.75 606.218C739.403 606.218 737.5 608.121 737.5 610.468C737.5 612.815 739.403 614.718 741.75 614.718Z" fill="#DEDDDD"/>
<path d="M766.75 614.718C769.097 614.718 771 612.815 771 610.468C771 608.121 769.097 606.218 766.75 606.218C764.403 606.218 762.5 608.121 762.5 610.468C762.5 612.815 764.403 614.718 766.75 614.718Z" fill="#DEDDDD"/>
<path d="M791.75 614.718C794.097 614.718 796 612.815 796 610.468C796 608.121 794.097 606.218 791.75 606.218C789.403 606.218 787.5 608.121 787.5 610.468C787.5 612.815 789.403 614.718 791.75 614.718Z" fill="#DEDDDD"/>
<path d="M816.75 614.718C819.097 614.718 821 612.815 821 610.468C821 608.121 819.097 606.218 816.75 606.218C814.403 606.218 812.5 608.121 812.5 610.468C812.5 612.815 814.403 614.718 816.75 614.718Z" fill="#DEDDDD"/>
<path d="M841.75 614.718C844.097 614.718 846 612.815 846 610.468C846 608.121 844.097 606.218 841.75 606.218C839.403 606.218 837.5 608.121 837.5 610.468C837.5 612.815 839.403 614.718 841.75 614.718Z" fill="#DEDDDD"/>
<path d="M866.75 614.718C869.097 614.718 871 612.815 871 610.468C871 608.121 869.097 606.218 866.75 606.218C864.403 606.218 862.5 608.121 862.5 610.468C862.5 612.815 864.403 614.718 866.75 614.718Z" fill="#DEDDDD"/>
<path d="M891.75 614.718C894.097 614.718 896 612.815 896 610.468C896 608.121 894.097 606.218 891.75 606.218C889.403 606.218 887.5 608.121 887.5 610.468C887.5 612.815 889.403 614.718 891.75 614.718Z" fill="#DEDDDD"/>
<path d="M916.75 614.718C919.097 614.718 921 612.815 921 610.468C921 608.121 919.097 606.218 916.75 606.218C914.403 606.218 912.5 608.121 912.5 610.468C912.5 612.815 914.403 614.718 916.75 614.718Z" fill="#DEDDDD"/>
<path d="M941.75 614.718C944.097 614.718 946 612.815 946 610.468C946 608.121 944.097 606.218 941.75 606.218C939.403 606.218 937.5 608.121 937.5 610.468C937.5 612.815 939.403 614.718 941.75 614.718Z" fill="#DEDDDD"/>
<path d="M966.75 614.718C969.097 614.718 971 612.815 971 610.468C971 608.121 969.097 606.218 966.75 606.218C964.403 606.218 962.5 608.121 962.5 610.468C962.5 612.815 964.403 614.718 966.75 614.718Z" fill="#DEDDDD"/>
<path d="M991.75 614.718C994.097 614.718 996 612.815 996 610.468C996 608.121 994.097 606.218 991.75 606.218C989.403 606.218 987.5 608.121 987.5 610.468C987.5 612.815 989.403 614.718 991.75 614.718Z" fill="#DEDDDD"/>
<path d="M529.25 636.368C531.597 636.368 533.5 634.466 533.5 632.118C533.5 629.771 531.597 627.868 529.25 627.868C526.903 627.868 525 629.771 525 632.118C525 634.466 526.903 636.368 529.25 636.368Z" fill="#DEDDDD"/>
<path d="M554.25 636.368C556.597 636.368 558.5 634.466 558.5 632.118C558.5 629.771 556.597 627.868 554.25 627.868C551.903 627.868 550 629.771 550 632.118C550 634.466 551.903 636.368 554.25 636.368Z" fill="#DEDDDD"/>
<path d="M579.25 636.368C581.597 636.368 583.5 634.466 583.5 632.118C583.5 629.771 581.597 627.868 579.25 627.868C576.903 627.868 575 629.771 575 632.118C575 634.466 576.903 636.368 579.25 636.368Z" fill="#DEDDDD"/>
<path d="M604.25 636.368C606.597 636.368 608.5 634.466 608.5 632.118C608.5 629.771 606.597 627.868 604.25 627.868C601.903 627.868 600 629.771 600 632.118C600 634.466 601.903 636.368 604.25 636.368Z" fill="#DEDDDD"/>
<path d="M629.25 636.368C631.597 636.368 633.5 634.466 633.5 632.118C633.5 629.771 631.597 627.868 629.25 627.868C626.903 627.868 625 629.771 625 632.118C625 634.466 626.903 636.368 629.25 636.368Z" fill="#DEDDDD"/>
<path d="M654.25 636.368C656.597 636.368 658.5 634.466 658.5 632.118C658.5 629.771 656.597 627.868 654.25 627.868C651.903 627.868 650 629.771 650 632.118C650 634.466 651.903 636.368 654.25 636.368Z" fill="#DEDDDD"/>
<path d="M679.25 636.368C681.597 636.368 683.5 634.466 683.5 632.118C683.5 629.771 681.597 627.868 679.25 627.868C676.903 627.868 675 629.771 675 632.118C675 634.466 676.903 636.368 679.25 636.368Z" fill="#DEDDDD"/>
<path d="M704.25 636.368C706.597 636.368 708.5 634.466 708.5 632.118C708.5 629.771 706.597 627.868 704.25 627.868C701.903 627.868 700 629.771 700 632.118C700 634.466 701.903 636.368 704.25 636.368Z" fill="#DEDDDD"/>
<path d="M729.25 636.368C731.597 636.368 733.5 634.466 733.5 632.118C733.5 629.771 731.597 627.868 729.25 627.868C726.903 627.868 725 629.771 725 632.118C725 634.466 726.903 636.368 729.25 636.368Z" fill="#DEDDDD"/>
<path d="M754.25 636.368C756.597 636.368 758.5 634.466 758.5 632.118C758.5 629.771 756.597 627.868 754.25 627.868C751.903 627.868 750 629.771 750 632.118C750 634.466 751.903 636.368 754.25 636.368Z" fill="#DEDDDD"/>
<path d="M779.25 636.368C781.597 636.368 783.5 634.466 783.5 632.118C783.5 629.771 781.597 627.868 779.25 627.868C776.903 627.868 775 629.771 775 632.118C775 634.466 776.903 636.368 779.25 636.368Z" fill="#DEDDDD"/>
<path d="M804.25 636.368C806.597 636.368 808.5 634.466 808.5 632.118C808.5 629.771 806.597 627.868 804.25 627.868C801.903 627.868 800 629.771 800 632.118C800 634.466 801.903 636.368 804.25 636.368Z" fill="#DEDDDD"/>
<path d="M829.25 636.368C831.597 636.368 833.5 634.466 833.5 632.118C833.5 629.771 831.597 627.868 829.25 627.868C826.903 627.868 825 629.771 825 632.118C825 634.466 826.903 636.368 829.25 636.368Z" fill="#DEDDDD"/>
<path d="M854.25 636.368C856.597 636.368 858.5 634.466 858.5 632.118C858.5 629.771 856.597 627.868 854.25 627.868C851.903 627.868 850 629.771 850 632.118C850 634.466 851.903 636.368 854.25 636.368Z" fill="#DEDDDD"/>
<path d="M879.25 636.368C881.597 636.368 883.5 634.466 883.5 632.118C883.5 629.771 881.597 627.868 879.25 627.868C876.903 627.868 875 629.771 875 632.118C875 634.466 876.903 636.368 879.25 636.368Z" fill="#DEDDDD"/>
<path d="M904.25 636.368C906.597 636.368 908.5 634.466 908.5 632.118C908.5 629.771 906.597 627.868 904.25 627.868C901.903 627.868 900 629.771 900 632.118C900 634.466 901.903 636.368 904.25 636.368Z" fill="#DEDDDD"/>
<path d="M929.25 636.368C931.597 636.368 933.5 634.466 933.5 632.118C933.5 629.771 931.597 627.868 929.25 627.868C926.903 627.868 925 629.771 925 632.118C925 634.466 926.903 636.368 929.25 636.368Z" fill="#DEDDDD"/>
<path d="M954.25 636.368C956.597 636.368 958.5 634.466 958.5 632.118C958.5 629.771 956.597 627.868 954.25 627.868C951.903 627.868 950 629.771 950 632.118C950 634.466 951.903 636.368 954.25 636.368Z" fill="#DEDDDD"/>
<path d="M979.25 636.368C981.597 636.368 983.5 634.466 983.5 632.118C983.5 629.771 981.597 627.868 979.25 627.868C976.903 627.868 975 629.771 975 632.118C975 634.466 976.903 636.368 979.25 636.368Z" fill="#DEDDDD"/>
<path d="M541.75 658.019C544.097 658.019 546 656.116 546 653.769C546 651.422 544.097 649.519 541.75 649.519C539.403 649.519 537.5 651.422 537.5 653.769C537.5 656.116 539.403 658.019 541.75 658.019Z" fill="#DEDDDD"/>
<path d="M566.75 658.019C569.097 658.019 571 656.116 571 653.769C571 651.422 569.097 649.519 566.75 649.519C564.403 649.519 562.5 651.422 562.5 653.769C562.5 656.116 564.403 658.019 566.75 658.019Z" fill="#DEDDDD"/>
<path d="M591.75 658.019C594.097 658.019 596 656.116 596 653.769C596 651.422 594.097 649.519 591.75 649.519C589.403 649.519 587.5 651.422 587.5 653.769C587.5 656.116 589.403 658.019 591.75 658.019Z" fill="#DEDDDD"/>
<path d="M616.75 658.019C619.097 658.019 621 656.116 621 653.769C621 651.422 619.097 649.519 616.75 649.519C614.403 649.519 612.5 651.422 612.5 653.769C612.5 656.116 614.403 658.019 616.75 658.019Z" fill="#DEDDDD"/>
<path d="M641.75 658.019C644.097 658.019 646 656.116 646 653.769C646 651.422 644.097 649.519 641.75 649.519C639.403 649.519 637.5 651.422 637.5 653.769C637.5 656.116 639.403 658.019 641.75 658.019Z" fill="#DEDDDD"/>
<path d="M666.75 658.019C669.097 658.019 671 656.116 671 653.769C671 651.422 669.097 649.519 666.75 649.519C664.403 649.519 662.5 651.422 662.5 653.769C662.5 656.116 664.403 658.019 666.75 658.019Z" fill="#DEDDDD"/>
<path d="M691.75 658.019C694.097 658.019 696 656.116 696 653.769C696 651.422 694.097 649.519 691.75 649.519C689.403 649.519 687.5 651.422 687.5 653.769C687.5 656.116 689.403 658.019 691.75 658.019Z" fill="#DEDDDD"/>
<path d="M716.75 658.019C719.097 658.019 721 656.116 721 653.769C721 651.422 719.097 649.519 716.75 649.519C714.403 649.519 712.5 651.422 712.5 653.769C712.5 656.116 714.403 658.019 716.75 658.019Z" fill="#DEDDDD"/>
<path d="M741.75 658.019C744.097 658.019 746 656.116 746 653.769C746 651.422 744.097 649.519 741.75 649.519C739.403 649.519 737.5 651.422 737.5 653.769C737.5 656.116 739.403 658.019 741.75 658.019Z" fill="#DEDDDD"/>
<path d="M766.75 658.019C769.097 658.019 771 656.116 771 653.769C771 651.422 769.097 649.519 766.75 649.519C764.403 649.519 762.5 651.422 762.5 653.769C762.5 656.116 764.403 658.019 766.75 658.019Z" fill="#DEDDDD"/>
<path d="M791.75 658.019C794.097 658.019 796 656.116 796 653.769C796 651.422 794.097 649.519 791.75 649.519C789.403 649.519 787.5 651.422 787.5 653.769C787.5 656.116 789.403 658.019 791.75 658.019Z" fill="#DEDDDD"/>
<path d="M816.75 658.019C819.097 658.019 821 656.116 821 653.769C821 651.422 819.097 649.519 816.75 649.519C814.403 649.519 812.5 651.422 812.5 653.769C812.5 656.116 814.403 658.019 816.75 658.019Z" fill="#DEDDDD"/>
<path d="M841.75 658.019C844.097 658.019 846 656.116 846 653.769C846 651.422 844.097 649.519 841.75 649.519C839.403 649.519 837.5 651.422 837.5 653.769C837.5 656.116 839.403 658.019 841.75 658.019Z" fill="#DEDDDD"/>
<path d="M866.75 658.019C869.097 658.019 871 656.116 871 653.769C871 651.422 869.097 649.519 866.75 649.519C864.403 649.519 862.5 651.422 862.5 653.769C862.5 656.116 864.403 658.019 866.75 658.019Z" fill="#DEDDDD"/>
<path d="M891.75 658.019C894.097 658.019 896 656.116 896 653.769C896 651.422 894.097 649.519 891.75 649.519C889.403 649.519 887.5 651.422 887.5 653.769C887.5 656.116 889.403 658.019 891.75 658.019Z" fill="#DEDDDD"/>
<path d="M916.75 658.019C919.097 658.019 921 656.116 921 653.769C921 651.422 919.097 649.519 916.75 649.519C914.403 649.519 912.5 651.422 912.5 653.769C912.5 656.116 914.403 658.019 916.75 658.019Z" fill="#DEDDDD"/>
<path d="M941.75 658.019C944.097 658.019 946 656.116 946 653.769C946 651.422 944.097 649.519 941.75 649.519C939.403 649.519 937.5 651.422 937.5 653.769C937.5 656.116 939.403 658.019 941.75 658.019Z" fill="#DEDDDD"/>
<path d="M966.75 658.019C969.097 658.019 971 656.116 971 653.769C971 651.422 969.097 649.519 966.75 649.519C964.403 649.519 962.5 651.422 962.5 653.769C962.5 656.116 964.403 658.019 966.75 658.019Z" fill="#DEDDDD"/>
<path d="M991.75 658.019C994.097 658.019 996 656.116 996 653.769C996 651.422 994.097 649.519 991.75 649.519C989.403 649.519 987.5 651.422 987.5 653.769C987.5 656.116 989.403 658.019 991.75 658.019Z" fill="#DEDDDD"/>
<path d="M554.25 679.67C556.597 679.67 558.5 677.767 558.5 675.42C558.5 673.072 556.597 671.17 554.25 671.17C551.903 671.17 550 673.072 550 675.42C550 677.767 551.903 679.67 554.25 679.67Z" fill="#DEDDDD"/>
<path d="M579.25 679.67C581.597 679.67 583.5 677.767 583.5 675.42C583.5 673.072 581.597 671.17 579.25 671.17C576.903 671.17 575 673.072 575 675.42C575 677.767 576.903 679.67 579.25 679.67Z" fill="#DEDDDD"/>
<path d="M604.25 679.67C606.597 679.67 608.5 677.767 608.5 675.42C608.5 673.072 606.597 671.17 604.25 671.17C601.903 671.17 600 673.072 600 675.42C600 677.767 601.903 679.67 604.25 679.67Z" fill="#DEDDDD"/>
<path d="M629.25 679.67C631.597 679.67 633.5 677.767 633.5 675.42C633.5 673.072 631.597 671.17 629.25 671.17C626.903 671.17 625 673.072 625 675.42C625 677.767 626.903 679.67 629.25 679.67Z" fill="#DEDDDD"/>
<path d="M654.25 679.67C656.597 679.67 658.5 677.767 658.5 675.42C658.5 673.072 656.597 671.17 654.25 671.17C651.903 671.17 650 673.072 650 675.42C650 677.767 651.903 679.67 654.25 679.67Z" fill="#DEDDDD"/>
<path d="M679.25 679.67C681.597 679.67 683.5 677.767 683.5 675.42C683.5 673.072 681.597 671.17 679.25 671.17C676.903 671.17 675 673.072 675 675.42C675 677.767 676.903 679.67 679.25 679.67Z" fill="#DEDDDD"/>
<path d="M704.25 679.67C706.597 679.67 708.5 677.767 708.5 675.42C708.5 673.072 706.597 671.17 704.25 671.17C701.903 671.17 700 673.072 700 675.42C700 677.767 701.903 679.67 704.25 679.67Z" fill="#DEDDDD"/>
<path d="M729.25 679.67C731.597 679.67 733.5 677.767 733.5 675.42C733.5 673.072 731.597 671.17 729.25 671.17C726.903 671.17 725 673.072 725 675.42C725 677.767 726.903 679.67 729.25 679.67Z" fill="#DEDDDD"/>
<path d="M754.25 679.67C756.597 679.67 758.5 677.767 758.5 675.42C758.5 673.072 756.597 671.17 754.25 671.17C751.903 671.17 750 673.072 750 675.42C750 677.767 751.903 679.67 754.25 679.67Z" fill="#DEDDDD"/>
<path d="M779.25 679.67C781.597 679.67 783.5 677.767 783.5 675.42C783.5 673.072 781.597 671.17 779.25 671.17C776.903 671.17 775 673.072 775 675.42C775 677.767 776.903 679.67 779.25 679.67Z" fill="#DEDDDD"/>
<path d="M804.25 679.67C806.597 679.67 808.5 677.767 808.5 675.42C808.5 673.072 806.597 671.17 804.25 671.17C801.903 671.17 800 673.072 800 675.42C800 677.767 801.903 679.67 804.25 679.67Z" fill="#DEDDDD"/>
<path d="M829.25 679.67C831.597 679.67 833.5 677.767 833.5 675.42C833.5 673.072 831.597 671.17 829.25 671.17C826.903 671.17 825 673.072 825 675.42C825 677.767 826.903 679.67 829.25 679.67Z" fill="#DEDDDD"/>
<path d="M854.25 679.67C856.597 679.67 858.5 677.767 858.5 675.42C858.5 673.072 856.597 671.17 854.25 671.17C851.903 671.17 850 673.072 850 675.42C850 677.767 851.903 679.67 854.25 679.67Z" fill="#DEDDDD"/>
<path d="M879.25 679.67C881.597 679.67 883.5 677.767 883.5 675.42C883.5 673.072 881.597 671.17 879.25 671.17C876.903 671.17 875 673.072 875 675.42C875 677.767 876.903 679.67 879.25 679.67Z" fill="#DEDDDD"/>
<path d="M904.25 679.67C906.597 679.67 908.5 677.767 908.5 675.42C908.5 673.072 906.597 671.17 904.25 671.17C901.903 671.17 900 673.072 900 675.42C900 677.767 901.903 679.67 904.25 679.67Z" fill="#DEDDDD"/>
<path d="M929.25 679.67C931.597 679.67 933.5 677.767 933.5 675.42C933.5 673.072 931.597 671.17 929.25 671.17C926.903 671.17 925 673.072 925 675.42C925 677.767 926.903 679.67 929.25 679.67Z" fill="#DEDDDD"/>
<path d="M954.25 679.67C956.597 679.67 958.5 677.767 958.5 675.42C958.5 673.072 956.597 671.17 954.25 671.17C951.903 671.17 950 673.072 950 675.42C950 677.767 951.903 679.67 954.25 679.67Z" fill="#DEDDDD"/>
<path d="M979.25 679.67C981.597 679.67 983.5 677.767 983.5 675.42C983.5 673.072 981.597 671.17 979.25 671.17C976.903 671.17 975 673.072 975 675.42C975 677.767 976.903 679.67 979.25 679.67Z" fill="#DEDDDD"/>
<path d="M566.75 701.32C569.097 701.32 571 699.418 571 697.07C571 694.723 569.097 692.82 566.75 692.82C564.403 692.82 562.5 694.723 562.5 697.07C562.5 699.418 564.403 701.32 566.75 701.32Z" fill="#DEDDDD"/>
<path d="M591.75 701.32C594.097 701.32 596 699.418 596 697.07C596 694.723 594.097 692.82 591.75 692.82C589.403 692.82 587.5 694.723 587.5 697.07C587.5 699.418 589.403 701.32 591.75 701.32Z" fill="#DEDDDD"/>
<path d="M616.75 701.32C619.097 701.32 621 699.418 621 697.07C621 694.723 619.097 692.82 616.75 692.82C614.403 692.82 612.5 694.723 612.5 697.07C612.5 699.418 614.403 701.32 616.75 701.32Z" fill="#DEDDDD"/>
<path d="M641.75 701.32C644.097 701.32 646 699.418 646 697.07C646 694.723 644.097 692.82 641.75 692.82C639.403 692.82 637.5 694.723 637.5 697.07C637.5 699.418 639.403 701.32 641.75 701.32Z" fill="#DEDDDD"/>
<path d="M666.75 701.32C669.097 701.32 671 699.418 671 697.07C671 694.723 669.097 692.82 666.75 692.82C664.403 692.82 662.5 694.723 662.5 697.07C662.5 699.418 664.403 701.32 666.75 701.32Z" fill="#DEDDDD"/>
<path d="M691.75 701.32C694.097 701.32 696 699.418 696 697.07C696 694.723 694.097 692.82 691.75 692.82C689.403 692.82 687.5 694.723 687.5 697.07C687.5 699.418 689.403 701.32 691.75 701.32Z" fill="#DEDDDD"/>
<path d="M716.75 701.32C719.097 701.32 721 699.418 721 697.07C721 694.723 719.097 692.82 716.75 692.82C714.403 692.82 712.5 694.723 712.5 697.07C712.5 699.418 714.403 701.32 716.75 701.32Z" fill="#DEDDDD"/>
<path d="M741.75 701.32C744.097 701.32 746 699.418 746 697.07C746 694.723 744.097 692.82 741.75 692.82C739.403 692.82 737.5 694.723 737.5 697.07C737.5 699.418 739.403 701.32 741.75 701.32Z" fill="#DEDDDD"/>
<path d="M766.75 701.32C769.097 701.32 771 699.418 771 697.07C771 694.723 769.097 692.82 766.75 692.82C764.403 692.82 762.5 694.723 762.5 697.07C762.5 699.418 764.403 701.32 766.75 701.32Z" fill="#DEDDDD"/>
<path d="M791.75 701.32C794.097 701.32 796 699.418 796 697.07C796 694.723 794.097 692.82 791.75 692.82C789.403 692.82 787.5 694.723 787.5 697.07C787.5 699.418 789.403 701.32 791.75 701.32Z" fill="#DEDDDD"/>
<path d="M816.75 701.32C819.097 701.32 821 699.418 821 697.07C821 694.723 819.097 692.82 816.75 692.82C814.403 692.82 812.5 694.723 812.5 697.07C812.5 699.418 814.403 701.32 816.75 701.32Z" fill="#DEDDDD"/>
<path d="M841.75 701.32C844.097 701.32 846 699.418 846 697.07C846 694.723 844.097 692.82 841.75 692.82C839.403 692.82 837.5 694.723 837.5 697.07C837.5 699.418 839.403 701.32 841.75 701.32Z" fill="#DEDDDD"/>
<path d="M866.75 701.32C869.097 701.32 871 699.418 871 697.07C871 694.723 869.097 692.82 866.75 692.82C864.403 692.82 862.5 694.723 862.5 697.07C862.5 699.418 864.403 701.32 866.75 701.32Z" fill="#DEDDDD"/>
<path d="M891.75 701.32C894.097 701.32 896 699.418 896 697.07C896 694.723 894.097 692.82 891.75 692.82C889.403 692.82 887.5 694.723 887.5 697.07C887.5 699.418 889.403 701.32 891.75 701.32Z" fill="#DEDDDD"/>
<path d="M916.75 701.32C919.097 701.32 921 699.418 921 697.07C921 694.723 919.097 692.82 916.75 692.82C914.403 692.82 912.5 694.723 912.5 697.07C912.5 699.418 914.403 701.32 916.75 701.32Z" fill="#DEDDDD"/>
<path d="M941.75 701.32C944.097 701.32 946 699.418 946 697.07C946 694.723 944.097 692.82 941.75 692.82C939.403 692.82 937.5 694.723 937.5 697.07C937.5 699.418 939.403 701.32 941.75 701.32Z" fill="#DEDDDD"/>
<path d="M704.25 722.971C706.597 722.971 708.5 721.068 708.5 718.721C708.5 716.374 706.597 714.471 704.25 714.471C701.903 714.471 700 716.374 700 718.721C700 721.068 701.903 722.971 704.25 722.971Z" fill="#DEDDDD"/>
<path d="M729.25 722.971C731.597 722.971 733.5 721.068 733.5 718.721C733.5 716.374 731.597 714.471 729.25 714.471C726.903 714.471 725 716.374 725 718.721C725 721.068 726.903 722.971 729.25 722.971Z" fill="#DEDDDD"/>
<path d="M754.25 722.971C756.597 722.971 758.5 721.068 758.5 718.721C758.5 716.374 756.597 714.471 754.25 714.471C751.903 714.471 750 716.374 750 718.721C750 721.068 751.903 722.971 754.25 722.971Z" fill="#DEDDDD"/>
<path d="M779.25 722.971C781.597 722.971 783.5 721.068 783.5 718.721C783.5 716.374 781.597 714.471 779.25 714.471C776.903 714.471 775 716.374 775 718.721C775 721.068 776.903 722.971 779.25 722.971Z" fill="#DEDDDD"/>
<path d="M804.25 722.971C806.597 722.971 808.5 721.068 808.5 718.721C808.5 716.374 806.597 714.471 804.25 714.471C801.903 714.471 800 716.374 800 718.721C800 721.068 801.903 722.971 804.25 722.971Z" fill="#DEDDDD"/>
<path d="M829.25 722.971C831.597 722.971 833.5 721.068 833.5 718.721C833.5 716.374 831.597 714.471 829.25 714.471C826.903 714.471 825 716.374 825 718.721C825 721.068 826.903 722.971 829.25 722.971Z" fill="#DEDDDD"/>
<path d="M854.25 722.971C856.597 722.971 858.5 721.068 858.5 718.721C858.5 716.374 856.597 714.471 854.25 714.471C851.903 714.471 850 716.374 850 718.721C850 721.068 851.903 722.971 854.25 722.971Z" fill="#DEDDDD"/>
<path d="M879.25 722.971C881.597 722.971 883.5 721.068 883.5 718.721C883.5 716.374 881.597 714.471 879.25 714.471C876.903 714.471 875 716.374 875 718.721C875 721.068 876.903 722.971 879.25 722.971Z" fill="#DEDDDD"/>
<path d="M904.25 722.971C906.597 722.971 908.5 721.068 908.5 718.721C908.5 716.374 906.597 714.471 904.25 714.471C901.903 714.471 900 716.374 900 718.721C900 721.068 901.903 722.971 904.25 722.971Z" fill="#DEDDDD"/>
<path d="M929.25 722.971C931.597 722.971 933.5 721.068 933.5 718.721C933.5 716.374 931.597 714.471 929.25 714.471C926.903 714.471 925 716.374 925 718.721C925 721.068 926.903 722.971 929.25 722.971Z" fill="#DEDDDD"/>
<path d="M741.75 744.622C744.097 744.622 746 742.719 746 740.372C746 738.024 744.097 736.122 741.75 736.122C739.403 736.122 737.5 738.024 737.5 740.372C737.5 742.719 739.403 744.622 741.75 744.622Z" fill="#DEDDDD"/>
<path d="M766.75 744.622C769.097 744.622 771 742.719 771 740.372C771 738.024 769.097 736.122 766.75 736.122C764.403 736.122 762.5 738.024 762.5 740.372C762.5 742.719 764.403 744.622 766.75 744.622Z" fill="#DEDDDD"/>
<path d="M791.75 744.622C794.097 744.622 796 742.719 796 740.372C796 738.024 794.097 736.122 791.75 736.122C789.403 736.122 787.5 738.024 787.5 740.372C787.5 742.719 789.403 744.622 791.75 744.622Z" fill="#DEDDDD"/>
<path d="M841.75 744.622C844.097 744.622 846 742.719 846 740.372C846 738.024 844.097 736.122 841.75 736.122C839.403 736.122 837.5 738.024 837.5 740.372C837.5 742.719 839.403 744.622 841.75 744.622Z" fill="#DEDDDD"/>
<path d="M941.75 744.622C944.097 744.622 946 742.719 946 740.372C946 738.024 944.097 736.122 941.75 736.122C939.403 736.122 937.5 738.024 937.5 740.372C937.5 742.719 939.403 744.622 941.75 744.622Z" fill="#DEDDDD"/>
<path d="M754.25 766.272C756.597 766.272 758.5 764.369 758.5 762.022C758.5 759.675 756.597 757.772 754.25 757.772C751.903 757.772 750 759.675 750 762.022C750 764.369 751.903 766.272 754.25 766.272Z" fill="#DEDDDD"/>
<path d="M929.25 766.272C931.597 766.272 933.5 764.369 933.5 762.022C933.5 759.675 931.597 757.772 929.25 757.772C926.903 757.772 925 759.675 925 762.022C925 764.369 926.903 766.272 929.25 766.272Z" fill="#DEDDDD"/>
<path d="M941.75 787.923C944.097 787.923 946 786.02 946 783.673C946 781.326 944.097 779.423 941.75 779.423C939.403 779.423 937.5 781.326 937.5 783.673C937.5 786.02 939.403 787.923 941.75 787.923Z" fill="#DEDDDD"/>
</svg>
